<?xml version="1.0" encoding="UTF-8" standalone="no"?>
<!-- Generator: Adobe Illustrator 12.0.0, SVG Export Plug-In . SVG Version: 6.00 Build 51448)  -->

<svg
   xmlns:osb="http://www.openswatchbook.org/uri/2009/osb"
   xmlns:dc="http://purl.org/dc/elements/1.1/"
   xmlns:cc="http://creativecommons.org/ns#"
   xmlns:rdf="http://www.w3.org/1999/02/22-rdf-syntax-ns#"
   xmlns:svg="http://www.w3.org/2000/svg"
   xmlns="http://www.w3.org/2000/svg"
   xmlns:sodipodi="http://sodipodi.sourceforge.net/DTD/sodipodi-0.dtd"
   xmlns:inkscape="http://www.inkscape.org/namespaces/inkscape"
   version="1.1"
   id="Layer_1"
   width="800.00037"
   height="550"
   viewBox="0 0 800.00035 550.00002"
   overflow="visible"
   enable-background="new 0 0 563.971 420.947"
   xml:space="preserve"
   inkscape:version="0.91pre3 r13670"
   sodipodi:docname="Sheep-Transparente.svg"
   style="overflow:visible"><metadata
     id="metadata4226"><rdf:RDF><cc:Work
         rdf:about=""><dc:format>image/svg+xml</dc:format><dc:type
           rdf:resource="http://purl.org/dc/dcmitype/StillImage" /><dc:title></dc:title></cc:Work></rdf:RDF></metadata><defs
     id="defs4224"><linearGradient
       id="linearGradient4240"
       osb:paint="solid"><stop
         style="stop-color:#000000;stop-opacity:1;"
         offset="0"
         id="stop4242" /></linearGradient></defs><sodipodi:namedview
     pagecolor="#ffffff"
     bordercolor="#666666"
     borderopacity="1"
     objecttolerance="10"
     gridtolerance="10"
     guidetolerance="10"
     inkscape:pageopacity="0"
     inkscape:pageshadow="2"
     inkscape:window-width="1366"
     inkscape:window-height="715"
     id="namedview4222"
     showgrid="false"
     fit-margin-top="0"
     fit-margin-left="0"
     fit-margin-right="0"
     fit-margin-bottom="0"
     inkscape:zoom="0.90749958"
     inkscape:cx="142.76082"
     inkscape:cy="350.30218"
     inkscape:window-x="-8"
     inkscape:window-y="-8"
     inkscape:window-maximized="1"
     inkscape:current-layer="g4180" /><g
     id="g4180"
     transform="translate(-209.18199,18.745679)"><path
       d="m 882.07503,-18.744544 c -3.48994,-0.0193 -6.97783,0.20832 -10.5992,0.62516 -7.61523,0.87389 -15.28541,0.68862 -22.93218,1.08166 -15.58795,0.79647 -31.86844,1.35399 -47.05835,5.11751 -4.3919,1.08678 -8.74365,1.82078 -13.25121,2.23018 0.0346,-6.14548 -12.34681,-4.97555 -16.01174,-4.08529 -6.702,1.63612 -12.88619,4.26873 -19.76092,5.49842 -16.09263,2.87474 -32.47551,4.66457 -48.67478,6.93191 -14.58308,2.03807996 -29.30155,1.71322996 -43.86361,4.04459 -3.73402,0.59847 -7.41692,1.53447 -11.14193,2.1255 -3.35851,0.53297 -6.46312,-0.16604 -9.63991,1.45966 -1.68374,0.86198 -2.04991,1.62503 -4.08359,1.57887 -1.85801,-0.0432 -3.74351,-0.1959 -5.55044,-0.6455 -2.97249,-0.74138 -6.02757,-2.92675 -9.13825,-2.54713 -3.93979,0.47789 -7.96574,1.29657 -11.55557,3.04434 -2.5354,1.23119 -5.22389,3.74893 -7.95306,4.32953 -7.62725,1.61825 -15.70823,1.21483 -23.40156,2.66635 -3.78509,0.7131 -7.51836,1.67855 -11.17126,2.88442 -1.83547,0.60294 -3.62365,1.27121 -5.41256,1.99176 -1.15655,0.46449 -3.30691,-0.73407 -4.65272,-0.86358 -3.24136,-0.31264 -6.51496,-0.0543 -9.54603,1.20959 -1.23466,0.5151 -2.56051,-0.24506 -3.89879,0.0379 -1.79793,0.37517 -3.66149,1.23712 -5.58858,1.61377 -15.61948,3.04296 -30.92446,2.06318 -46.52442,-0.36345 -15.69158,-2.44599 -31.69096,-3.47718 -47.56879,-3.12286 -6.58035,0.14589 -13.18335,1.03039 -19.33262,3.46596 -1.63569,0.64909 -3.19145,1.34852 -4.77007,2.11969 -0.95228,0.46597 -1.99934,-3.47565 -2.24717,-3.99224 -1.40439,-2.91494 -5.21937,-4.89414 -8.26696,-5.4926 -3.01605,-0.59401 -6.10877,0.43644 -8.57208,-1.37534 -2.78324,-2.05147 -5.00381,-4.58026 -8.11148,-6.16428 -5.91645,-3.02212 -12.45821,-4.47979 -19.06859,-4.7686 1.05292,-1.32199004 2.90189,-4.51913 2.00368,-5.92002 -0.76753,-1.19844 -1.85014,-1.4812 -3.01871,-1.2445 -1.07394,0.21587 -1.76704,0.71946 -2.47599,1.59633 -0.93726,1.1612 -0.73997,1.5757 -2.21195,2.39301 -1.06042,0.59101996 -2.14019,2.38668 -3.2622,2.47153 -1.10548,0.0834 -2.19191,0.26208 -3.29739,0.36927 -5.88493,0.58359 -12.06326,1.1374 -17.75141,-0.74436004 -2.62552,-0.86645 -6.16158,-1.93511996 -7.93546,-4.04166996 -0.62634,-0.74437 -1.35147,-1.38576 -2.2677,-1.74752 -1.18209,-0.46598 -2.18207,0.42752 -3.0187,-0.81706 -2.79085,0.16971 -3.55451,5.58615996 -4.16283,7.85945 -0.57076,2.13337 -2.30182,0.68603 -4.16282,0.38382 -1.84148,-0.29924 -3.6925,-0.29854 -5.5475,-0.21517 -1.72281,0.0789 -1.48274,1.82378 -2.17968,2.84953 -0.5948,0.88281 -0.0599,0.77201 -1.76017,1.08167 -0.77504,0.13994 -1.55283,0.2501 -2.32637,0.37217 -3.77007,0.58061 -7.15523,0.63729 -9.84234,3.65494 -1.10398,1.24012 -1.55089,2.94433 -1.7807,4.54471 -0.31692,2.1929 -0.46528,2.44439 -2.45545,3.60262 -2.49035,1.45151 -5.60382,1.99051 -8.45766,1.85801 -1.34881,-0.0655 -2.07066,1.40805 -3.5937,1.68645 -2.15539,0.39154 -4.28434,0.81029 -6.42171,1.28519 -3.92027,0.86645 -7.78346,1.92071 -11.64064,3.02981 -2.82379,0.80838 -4.71099,3.28642 -6.79429,5.23964 -2.64055,2.47725 -5.17454,5.07557 -7.75651,7.6094 -1.81894,1.78052 -4.90694,3.72184 -5.07517,6.38815 -0.19676,3.10253 3.9673,4.059405 6.30143,5.350136 -2.4573,2.983418 1.05472,4.392413 3.24166,5.989823 2.63904,1.92493 9.88464,3.840303 5.82619,8.028105 -0.058,0.05985 -0.11761,0.09379 -0.17602,0.148278 -0.0275,0.0014 -0.0515,0.01042 -0.0792,0.01191 -1.487,0.04169 -3.34073,-0.926408 -4.37111,-0.726917 -3.11819,0.592515 -7.77667,4.468442 -10.17089,6.481207 -3.1287,2.630589 -4.32555,6.156145 -7.02018,8.984735 -6.0336,6.330087 -14.47201,11.276934 -22.90284,13.5934 -4.02541,1.106128 -7.46045,1.289361 -6.94977,5.888053 0.27187,2.457894 -0.12992,2.567664 2.47012,3.614244 3.17977,1.27733 6.58836,2.00148 9.99193,2.20692 l 1.8746,0.0348 1.91273,0 8.6982,-0.29659 8.68061,-0.36926 c -0.11956,3.13321 0.0264,6.49807 1.35828,5.62635 -3.80912,2.49362 -15.15506,11.77743 -6.89697,15.0705 -1.9361,2.16759 -3.39029,6.17169 -2.49359,9.01963 0.40705,1.28775 1.37984,2.18793 2.58747,2.75067 0.7465,0.34539 1.55047,0.53776 2.36156,0.66877 0.91924,0.14441 0.19609,2.15772 0.091,2.95419 -0.66539,5.02894 -2.6393,14.77967 2.88963,17.76011 1.88203,1.01234 2.51929,0.46295 3.30034,2.66925 0.60231,1.70311 1.22911,3.38815 1.98313,5.0332 1.54707,3.36602 3.45196,6.45688 5.9318,9.23187 1.15505,1.2952 2.41988,2.47585 3.74917,3.59389 0.67891,0.57465 1.422,1.08101 2.14447,1.60505 0.65939,0.47639 0.0691,1.67665 0.0646,2.40464 -0.006,2.29116 0.99383,3.85122 3.33848,4.28593 1.99318,0.3692 1.88813,1.03396 2.87495,2.82044 0.83062,1.50809 1.81956,3.00535 3.10379,4.17252 2.0818,1.89664 4.10865,3.70771 6.35717,5.36467 2.78024,2.05147 6.19527,3.57936 9.22334,5.25418 1.39838,0.77414 2.80114,1.54469 4.19802,2.32032 1.3428,0.75181 1.05474,1.53725 1.80125,2.69251 0.48966,0.75479 1.34946,0.86445 1.34946,2.0063 0,1.36964 0.40587,1.65891 1.61349,2.15168 2.26955,0.92302 4.39719,-0.30951 5.97581,-1.86672 0.41156,-0.4094 2.4012,0.86723 3.15071,0.95953 2.633,0.30768 4.02146,-1.03635 5.28054,-2.63145 2.3184,2.76778 2.03327,6.5712 2.90724,10.17978 2.69762,11.14465 6.63267,19.15296 18.53466,21.94135 0.0353,-0.005 0.0704,-0.005 0.10559,-0.009 0.43677,3.2418 3.21776,4.93136 8.18188,2.69542 1.07245,2.54871 4.07594,4.02017 4.96664,6.42597 0.86967,2.34624 -0.39643,4.9789 -0.88008,7.29538 -0.46412,2.22713 -0.81635,4.49605 -1.03264,6.75744 -0.19226,1.98745 0.83594,2.20494 2.71947,2.41336 3.60784,0.39601 6.38327,-1.66759 8.58673,-4.27138 0.45962,3.38836 2.18273,6.60021 5.30693,8.22292 1.4104,0.73394 2.97138,0.6166 4.36526,1.16888 1.28873,0.50916 1.08253,-0.0374 1.14411,1.55852 0.0406,1.04361 0.21503,2.08845 0.42832,3.11122 1.56961,7.4645 4.58404,14.41179 7.57756,21.42668 2.80727,6.5802 7.06533,12.93839 12.71141,17.56239 2.52039,2.06041 5.2934,2.64818 8.43713,1.87255 1.03939,-0.25606 5.41623,7.93501 6.44811,9.11558 2.10734,2.4043 4.8326,3.34606 7.98533,2.87859 1.73634,-0.26053 2.41056,0.92066 4.01322,1.64865 1.76487,0.80839 3.80033,1.03202 5.68536,1.41314 7.33285,1.4932 15.26587,1.8591 21.93182,5.47224 1.55009,0.83816 3.22131,1.41791 2.96296,3.13739 -0.25685,1.72097 0.0206,3.54598 0.0206,5.28035 0,3.48065 -1.18549,7.00441 -2.36157,10.23794 -0.84263,2.31646 -2.6282,6.55644 0.29924,7.99903 1.65822,0.81731 3.51243,0.70318 4.53831,-1.07585 0.6699,-1.16122 1.92808,-1.65032 3.15073,-2.13714 -0.71947,2.42068 -0.70987,5.0847 -1.27613,7.53962 -0.78255,3.39876 -0.41117,7.44968 3.67583,7.99903 0.58278,0.0804 1.98964,-0.29695 2.3381,0.0901 0.65788,0.7265 1.3173,1.44775 1.93913,2.20402 1.23316,1.49767 2.31443,3.08762 3.26221,4.77733 1.62368,2.90005 2.7918,6.43162 3.14777,9.72618 0.4416,4.09848 -1.10643,7.95958 -2.2765,11.81391 -1.07544,3.52085 -2.01514,7.07414 -3.21525,10.55777 -1.14153,3.31094 -2.802,6.34485 -4.53833,9.37145 -0.67441,1.17163 -0.47721,2.50465 -0.7686,3.82069 -0.32744,1.47236 -1.04952,2.74708 -1.58123,4.14054 -1.00035,2.61421 -0.84952,5.50393 -1.15292,8.24617 -0.13819,1.25649 -2.35625,1.92115 -3.39715,2.70124 -1.4179,1.06147 -2.61728,2.30994 -3.72276,3.68404 -4.15459,5.17185 -6.81236,11.73838 -10.67255,17.19309 -2.55944,3.61762 -5.08993,7.24883 -7.58929,10.90962 -1.39237,2.03956 -3.32241,5.35376 -3.38249,7.80421 -0.036,1.5736 0.42034,2.48259 -0.0527,3.99514 -0.53021,1.70014 -0.8394,3.49011 -1.07371,5.25127 -0.27187,2.04403 -1.65729,7.70398 1.14999,8.19676 7.12857,1.25052 14.18125,1.67684 21.37442,0.66003 5.74672,-0.81135 13.35896,-1.40587 17.89806,-5.43735 1.27371,-1.13143 2.25545,-2.60309 2.9659,-4.12309 0.69694,-1.50808 0.51527,-2.11282 2.2501,-2.46863 2.30259,-0.47788 3.75427,-2.52027 5.85258,-2.79718 5.82633,-0.75925 10.84579,-3.63584 12.59114,-9.47613 0.38301,-1.27882 0.52806,-2.59728 0.52806,-3.93117 0,-1.41727 1.9934,-2.33538 2.86908,-3.49212 1.30826,-1.73289 2.21338,-3.43486 2.71655,-5.56822 1.71981,-7.28883 2.63466,-14.5446 5.00184,-21.72327 2.47232,-7.51066 4.87001,-15.20753 8.74221,-22.13906 1.66875,-2.99086 3.78614,-5.68619 5.58856,-8.59219 1.01236,-1.63909 1.94375,-3.29343 2.81041,-5.00994 0.52571,-1.03765 1.4093,-4.24077 2.54933,-4.49237 2.09382,-0.46299 2.52912,-2.11857 3.76678,-3.46885 0.14765,-0.16165 0.22514,-0.31705 0.27577,-0.47395 l -0.006,-0.006 -0.0733,-0.41288 0.0352,-0.33148 0.18775,-0.63388 0.0176,-0.029 c 0.0439,-0.1679 0.10484,-0.34174 0.22001,-0.53211 0.75251,-1.23713 2.17491,-1.81281 2.94244,-3.05888 0.95679,-1.55125 1.71113,-3.21801 2.74001,-4.67845 0.0303,-0.0429 0.0756,-0.10332 0.1086,-0.1512 l 0.15549,-0.38383 0.0791,-0.14544 0.11145,-0.0785 0.20829,-0.0988 c 0.49943,-0.57337 1.13443,-1.00112 1.92153,-0.22099 0.0904,0.0901 0.14795,0.30294 0.19362,0.54373 0.0888,0.46725 0.12783,1.07506 0.22295,1.34918 0.10169,-0.31908 0.20816,-0.62002 0.31391,-0.92175 l 0.0264,-0.12788 0.0234,-0.0204 c 0.16875,-0.47152 0.34428,-0.92221 0.5398,-1.33172 l 0,-0.20934 0.0733,-0.33438 0.18775,-0.18609 0.53979,-0.53503 c 0.19318,-0.23828 0.39349,-0.46613 0.62486,-0.64259 l 0.37257,-0.34309 0.3403,-0.14828 0.37258,-0.0756 0.24349,-0.0119 c 0.7081,-0.12431 1.56608,-0.0284 2.61093,0.32275 l -0.041,-0.19771 0.0351,-0.2995 0.13788,-0.19772 c 0.11386,-0.49095 0.44035,-0.92605 0.67767,-1.41313 l 0.0499,-0.20645 0.22589,-0.51757 c 0.21994,-0.6937 0.31474,-1.3628 0.48404,-2.06153 l 0.0381,-0.16865 0.0529,-0.14248 c 0.0385,-0.13413 0.0646,-0.26319 0.11445,-0.40126 0.215,-0.60277 0.17608,-1.57909 0.29923,-2.3465 l -0.0176,-0.30239 0.1086,-0.12207 c 0.0563,-0.17885 0.12286,-0.34035 0.22589,-0.45651 0.12586,-0.14232 0.23918,-0.35378 0.34617,-0.57864 l 0.0323,-0.47686 0,-0.52048 0.49578,-0.56117 c 0.0243,-0.0922 0.0452,-0.16755 0.0675,-0.25588 0.0497,-0.19668 0.10964,-0.40554 0.1496,-0.56991 l 0,-0.20643 0,-0.11047 0.0381,-0.0756 0,-0.37219 -0.0381,-0.48267 0.0763,-0.44197 0.1496,-0.4129 0.15255,-0.21517 c 0.0634,-0.68222 0.11625,-1.36342 0.21708,-2.03246 l -0.0323,-0.23843 0.26109,-0.81706 0.0293,-0.0931 c 0.0182,-0.0629 0.024,-0.12937 0.044,-0.19189 0.77106,-2.40375 1.522,-4.85982 2.4085,-7.25757 l 0.0323,-0.10466 0.12316,-0.29367 c 0.22146,-0.5867 0.44191,-1.17319 0.68354,-1.75041 0.0976,-0.23329 0.22515,-0.44927 0.3315,-0.6775 l 0.13488,-0.32276 0.2963,-0.56117 c 1.21572,-2.34003 2.76335,-4.48827 3.95453,-6.84468 0.71048,-1.40605 1.27661,-2.7558 1.82473,-4.10855 l 0,-0.0668 0,-0.55535 0.67472,-1.22705 0.29923,-0.63388 0.19362,-0.33438 c 0.12512,-0.29449 0.22744,-0.57247 0.36083,-0.87231 0.56927,-1.27286 1.1439,-3.69284 2.40559,-4.49527 1.40289,-0.88877 3.6046,0.0202 5.20425,0.27332 0.95131,0.15044 2.62495,-0.0262 2.72241,0.91302 l 0.10274,0.10182 -0.18775,0.51758 -0.12617,0.14544 c -0.0455,0.0693 -0.0987,0.13042 -0.15548,0.18899 l -0.13488,0.1832 -0.6718,0.59607 -2.36451,0 -0.93583,-0.51757 -0.41364,-0.29659 -0.44885,-0.29948 -1.12064,0 c -0.0784,0.0596 -0.15331,0.13576 -0.22882,0.22388 l -0.75101,1.48583 -0.59846,1.70681 -0.41364,0.81705 -0.22296,0.37218 -0.22589,0.40999 -0.56326,0.74147 -0.40484,0.5321 c -0.0494,0.0964 -0.10829,0.17208 -0.15549,0.27331 l 0,0.4536 0,0.52047 -2.59038,5.01285 -2.39971,5.12042 -2.13862,4.79767 c -0.15777,0.37297 -0.31057,0.74845 -0.46645,1.12235 l -1.78071,4.44003 -0.46938,1.23868 c -6.7e-4,9.9e-4 -0.003,0.005 -0.003,0.006 -0.25785,0.78372 -0.47991,1.57906 -0.64246,2.40466 -0.21629,1.09124 -0.35593,2.1184 -0.44004,3.22753 -0.008,0.0978 -0.0475,0.17424 -0.0704,0.26169 l -0.0234,0.32274 -0.29629,0.42452 c -0.19401,0.3364 -0.3843,0.68116 -0.3843,1.1718 0,0.18067 -0.0386,0.3642 -0.0704,0.54664 l 0,0.0119 -0.003,0.003 c -0.10965,0.61527 -0.38913,1.24117 -0.70995,1.86965 l 0,0.31693 -0.41071,0.51757 -0.012,0.0149 c -0.18773,0.34707 -0.34936,0.69379 -0.51631,1.04095 l 0,0.0582 0,0.52339 0,0.51757 -0.11145,0.22097 -0.1496,0.2995 -0.22295,0.25878 -0.14675,0.21227 c -6.9e-4,0.0261 -0.009,0.0524 -0.009,0.0785 0,0.29692 -0.0293,0.65536 -0.0733,1.02642 l 0,0.0582 0,0.52047 -0.12316,0.1919 c -0.12948,0.63101 -0.33683,1.22736 -0.62486,1.67482 l 0,0.32275 -0.18775,0.51758 -0.0733,0 -0.0411,0 0,0.0406 -0.0733,0.0698 -0.1496,0.0756 -0.52512,0.0379 -0.5222,-0.0379 -0.60139,-0.52047 -0.52512,-0.52048 -0.44885,0.11627 -0.41364,0.25588 -0.31389,0.19192 c -0.27919,0.37238 -0.54394,0.81836 -0.80089,1.32879 l -0.012,0.0756 0,1.04095 -0.3755,0.29659 -0.29923,0.37217 -0.26403,0.40709 -0.18775,0.48267 -0.37258,1.03804 -0.22588,1.11364 -0.0382,0.0756 0,0.11046 -0.0351,0.22389 -0.30218,0.0408 -0.1496,0 -0.0733,0 -0.0381,0 0,0.0348 -0.0763,-0.0348 -0.0351,0 -0.0763,0 -0.1496,0 -0.29923,0 -0.0763,-0.0408 -0.0351,0 -0.0763,0 -0.1496,0 -0.30216,0 -0.26109,-0.59607 -0.14961,-0.44488 -0.15254,-0.59315 -0.14675,-0.52048 -1.12651,0.92754 -1.01211,1.08167 -0.97397,1.14853 -0.86247,1.29973 -0.56326,0.74145 -0.52512,0.77927 -1.08544,1.56142 -0.48992,0.0348 -0.15842,-0.0149 c -0.65719,0.74491 -0.67819,0.99216 0.88595,1.71553 1.71982,0.79201 2.39604,0.50434 3.80493,1.87547 5.59051,5.42791 9.9543,11.4131 13.68831,18.21661 1.18059,2.1527 2.36031,4.30532 3.54089,6.45505 0.29139,0.52999 -0.74153,3.87012 -0.6454,4.98667 0.13969,1.64653 -0.0369,3.29809 0.10274,4.94013 0.18024,2.1289 0.45277,2.52113 1.91273,3.87885 1.37735,1.27584 0.65797,1.60814 -0.31684,2.84081 -0.67591,0.84857 -0.59893,1.86221 -1.07957,2.86115 -1.50352,3.12633 -2.65925,6.49927 -4.60286,9.38889 -0.94177,1.39644 -4.90809,5.27309 -2.02421,6.6993 3.13921,1.55423 7.54538,1.90955 10.9835,2.43954 7.44851,1.14186 14.95685,0.92162 22.41587,0.0582 6.8507,-0.78754 9.79566,-4.23052 12.22443,-10.50255 0.78856,-2.04997 0.52519,-2.91405 2.58746,-4.00678 1.58163,-0.83816 3.24161,-1.8066 4.62047,-2.94547 2.25453,-1.8639 4.3125,-3.47936 5.81152,-6.07125 4.05695,-7.00895 -0.0386,-12.97456 -3.52329,-19.15579 -3.93228,-6.97618 -7.43802,-13.89358 -9.44922,-21.67966 -3.84367,-14.89029 -5.75323,-29.29147 -5.04878,-44.63285 0.19676,-4.30244 0.27445,-9.0299 3.20939,-12.50012 1.30525,-1.5468 3.05102,-2.59838 4.86395,-3.45142 1.1115,-0.52404 2.24262,-0.78319 3.43823,-1.04967 0.45511,-0.10124 1.23762,0.64188 1.75431,0.79671 9.63842,2.90302 18.89468,3.0492 28.75543,1.291 -0.84864,4.99768 3.20118,6.83505 7.36928,7.61812 4.9852,0.9394 9.98606,1.58933 15.05537,1.88708 11.07138,0.65206 21.89304,-0.93816 32.62196,-3.5241 0.0481,3.56998 1.39892,3.94839 4.79648,4.08237 4.14257,0.16377 8.03074,-0.84442 11.85187,-2.34358 -1.13552,5.06913 11.74481,5.09951 14.55959,4.75114 3.68445,-0.45704 7.13379,-2.2878 10.8603,-2.37266 3.725,-0.0848 6.30156,1.60315 9.48734,3.17228 6.14927,3.03701 12.49567,2.60213 17.88341,-1.73007 2.07128,-1.6644 8.15567,0.22967 10.90136,0.47978 3.1272,0.28434 6.07365,0.39165 9.15879,0.11924 2.05026,-0.18164 3.99787,0.46835 6.15476,0.52046 2.49486,0.0596 4.93221,-0.51281 7.33995,-1.08746 4.95215,-1.17907 9.91817,-1.79047 15.0055,-1.88128 -0.0376,3.85284 3.35626,5.45455 6.10195,7.7606 2.99803,2.52042 5.73466,5.05739 9.07665,7.12672 6.61189,4.0955 13.66243,7.50857 20.83757,10.50836 6.94684,2.90154 13.70563,6.96678 19.91348,11.18583 2.02171,1.37411 9.01979,4.8532 9.12944,7.26048 0.11866,2.62315 -0.36113,5.13331 -1.53721,7.4989 -2.38671,4.80415 -7.10178,8.64349 -11.31795,11.85171 -5.25406,4.00469 1.35753,7.01455 5.58271,6.34165 -0.97481,1.33092 -1.37055,2.94296 -1.66044,4.53887 -0.371,2.03362 -0.97751,3.17785 -2.20316,4.92563 -2.10433,3.01319 -4.30641,6.015 -6.87936,8.66197 -2.34465,2.41473 -5.57467,3.42576 -5.42427,7.37387 0.0451,1.20438 0.93352,1.55801 1.09423,2.44826 0.20127,1.10762 -0.86164,3.08953 -1.2732,4.57379 -0.96429,3.4613 -1.80464,6.97631 -3.4118,9.98207 -0.4476,0.82773 -1.06761,2.10461 -1.76604,2.74774 -1.10549,1.01235 -3.30891,1.1286 -4.75835,2.0412 -2.11334,1.32645 -5.8754,5.91877 -3.58783,8.39155 2.11334,2.2733 5.44736,2.97708 8.34325,3.80035 4.79143,1.36666 9.62443,2.31429 14.47745,3.43978 -3.71599,4.7684 -10.57907,10.94212 -10.87497,17.18438 -0.0315,0.7131 0.21545,1.67231 -0.15254,2.33777 -0.60832,1.13143 -2.95381,2.00672 -4.09535,2.91932 -2.22148,1.77307 -5.37413,4.34335 -5.9494,7.28956 -0.41005,2.10059 0.64069,3.69184 2.34398,4.8471 1.08295,0.73394 2.41554,1.07509 3.4294,1.91324 1.46747,1.20587 2.23541,2.91762 3.8636,4.04459 3.0506,2.11846 7.27089,2.79472 10.84269,3.58226 3.9458,0.87239 7.90122,1.45248 11.92813,1.82021 7.75342,0.71011 15.74103,-0.0744 23.34875,-1.61377 6.39559,-1.29967 12.02103,-4.2727 15.63038,-9.79888 0.66088,-1.01531 1.26064,-2.07061 1.73378,-3.17228 1.01236,-2.34028 2.37267,-2.32623 4.84049,-3.12866 3.51022,-1.15079 6.96866,-2.50407 10.35571,-3.96899 5.76474,-2.48767 10.49202,-6.58519 15.19033,-10.70897 4.81096,-4.22205 8.80378,-9.88779 10.30291,-16.14344 1.74985,-7.29926 0.89364,-15.02107 1.19104,-22.46473 0.30942,-7.74884 1.09481,-15.39872 2.38504,-23.04335 0.6654,-3.96599 1.64896,-7.87909 2.70188,-11.75575 0.70745,-2.58295 3.17019,-5.65003 4.47084,-8.05135 3.53275,-6.51619 4.53578,-14.24084 7.02313,-21.16791 1.28122,-3.567 2.6414,-7.08301 4.15694,-10.5607 0.69243,-1.58698 1.31141,-3.40999 2.24717,-4.86746 0.72847,-1.12845 1.70237,-1.94855 2.29116,-3.17226 2.88838,-6.01896 2.47633,-13.78022 0.33442,-19.95251 -1.11446,-3.20673 -2.61055,-6.03334 -3.50275,-9.32492 -0.94777,-3.50299 -2.08726,-6.98967 -3.27686,-10.41822 -2.25453,-6.49534 -5.15781,-12.92141 -6.45105,-19.69662 -1.2677,-6.63974 -1.75168,-13.2723 -1.42574,-20.02518 0.68792,-14.34394 4.03078,-28.37263 6.40998,-42.47538 0.81559,1.32349 1.02145,3.24448 2.2501,4.19578 1.13702,0.87984 3.52328,0.99124 4.46204,-0.29949 0.93426,-1.28775 0.4259,-5.32766 0.46645,-6.84468 0.0691,-2.6559 0.058,-5.30667 0.0234,-7.96703 4.6878,1.51404 7.02907,-2.98086 6.14889,-6.86794 -0.84113,-3.70843 -1.44287,-6.82208 0.16429,-10.45311 1.53506,-3.47022 3.0682,-6.94727 4.52366,-10.44728 1.46597,-3.52234 2.87835,-7.06255 4.29775,-10.60722 1.38487,-3.47321 3.57958,-6.43672 5.37149,-9.70002 3.18428,-5.7867 5.65732,-11.94832 7.16685,-18.37071 3.85118,-16.36414 2.7873,-34.13541 1.83351,-50.79136 2.42126,1.43216 3.55935,0.5773 5.77633,-0.11046 0.61735,-0.19205 0.44592,-0.74502 1.19693,-0.40708 0.68192,0.30965 1.39054,0.49524 2.14155,0.51757 1.13552,0.0327 2.35857,-0.29846 3.30034,-0.96244 3.34351,-2.35666 5.32881,-8.82681 6.33671,-12.58734 1.3593,-5.09593 1.509,-10.16818 1.6457,-15.439784 0.043,-1.606341 0.1403,-2.377965 0.7921,-3.640409 0.3845,-0.744367 0.8283,-0.660298 1.0972,-1.703899 0.1742,-0.665462 0.3525,-1.331909 0.4576,-2.006304 0.3605,-2.374527 0.6787,-4.671134 0.575,-7.091827 -0.1322,-7.269476 -2.5973,-14.202664 -4.0542,-21.269673 -1.4255,-6.922603 -1.9368,-13.507532 -6.10791,-19.527961 -1.39838,-2.01425 -0.75464,-1.86714 0.0264,-4.02133 0.5993,-1.65101 0.96134,-3.30719 0.49871,-5.05645 -0.84413,-3.20375 -3.81686,-5.21643 -6.62414,-6.64115 -6.88226,-3.49107 -13.5692,-7.47505 -20.52955,-10.78748 -13.87114,-6.59657 -28.02326,-11.8345 -41.05026,-20.13568 -6.26792,-3.99277 -12.33498,-7.57346 -19.82254,-8.73466 -0.86366,-0.1325 -1.73692,-0.19705 -2.60505,-0.28786 -0.39956,-0.0402 -0.26125,-0.84765 -0.63075,-1.09329 -1.36083,-0.91557 -3.25735,-1.27574 -4.84048,-1.74171 -3.53124,-1.03914 -7.10363,-1.89234 -10.74001,-2.47444 -3.62587,-0.5806 -7.11807,-0.84713 -10.608,-0.86649 z m -454.98241,54.2224 c 0.19226,0.0506 0.39712,0.11732 0.6014,0.19773 4.2477,1.65249 6.89962,5.69414 9.91567,8.81899 2.5279,2.61719 4.7038,5.557206 6.53025,8.693953 0.80509,1.380054 2.04542,3.08754 2.51706,4.594137 0.4506,1.448535 -0.0424,3.107489 0.63954,4.506896 -0.80358,-1.651003 -1.66912,-2.344916 -3.05097,-3.404892 0.26285,3.575933 -1.33749,7.680843 -2.34985,11.084083 -0.87418,2.943223 -2.41622,6.566439 -5.59149,7.644281 3.52674,-2.880696 5.09635,-7.03265 5.63257,-11.418454 0.41155,-3.377932 0.56419,-7.314689 -0.35204,-10.583944 1.22114,0.625267 2.5667,0.719057 3.51448,1.860914 -1.50052,-4.445353 -4.65749,-7.794047 -7.77117,-11.267264 -1.72732,-1.9279 -3.21416,-4.02208 -5.01358,-5.85024 -1.4194,-1.44259 -3.47802,-3.91 -5.22187,-4.87619 z m -165.841,33.377251 -1.14705,0.834509 -1.0297,0.904286 -1.02384,0.93336 -0.94463,0.97698 -0.94462,0.979899 -0.86836,1.026405 -0.82729,1.049675 -0.74808,1.099101 -0.10273,0.372183 -0.0997,0.395437 -0.088,0.171561 -0.0499,0.200622 -0.0909,0.171562 -0.0499,0.200621 -0.49579,1.043854 -0.12317,0.508848 -0.0469,0.5292 -0.0527,0.503028 0.0997,0.543744 0.0997,0.514654 0.24642,0.526282 0.63073,0.378003 0.66008,0.31984 0.68647,0.235532 0.74806,0.145449 0.70407,0.03781 0.75981,-0.04943 0.75396,-0.130861 0.81848,-0.191912 0.044,0.380907 0.0616,0.18901 0.0997,0.23842 0.44297,0.340205 0.92409,0.680395 -0.73927,0.875211 -2.73121,2.898962 -1.40814,1.413119 -1.36414,1.433499 -0.15255,0.596074 0.0733,0.625148 0.31389,0.770537 0.48113,0.366363 0.1672,0.177368 0.13503,0.206441 -2.37623,1.261939 -2.21489,1.384059 -2.09756,1.453836 -1.00916,0.764717 -0.92996,0.81124 -8.43125,1.131091 -8.36672,1.06711 -1.84524,0.18609 -1.81005,0.15702 c -3.30142,0.18104 -6.6546,-0.0198 -9.83352,-0.6484 -2.5995,-0.51555 -2.21955,-0.6335 -2.69602,-2.413387 -0.8934,-3.329921 2.40293,-3.801402 6.18997,-5.007022 7.9316,-2.524903 15.64171,-6.983074 20.9109,-12.223886 2.35309,-2.341701 3.20136,-5.051013 5.99047,-7.289545 2.13438,-1.712816 6.29022,-5.014644 9.2468,-5.75429 0.97665,-0.24713 2.84925,0.283276 4.28016,0.107634 0.44528,-0.05389 0.84492,-0.175536 1.17053,-0.409981 z m 168.47541,12.514651 c 0.48365,0.858999 4.25927,0.662322 5.4008,1.619577 4.28526,3.903454 6.83375,11.319706 10.09463,16.277182 2.93945,4.467683 5.01197,9.483783 8.33443,13.747513 2.92443,3.76053 6.30846,7.30305 10.26478,9.83085 3.18578,2.03513 10.96691,2.52893 10.23543,7.21396 -1.6357,10.47771 -17.08162,2.95817 -22.56548,1.0526 -4.835,-1.68526 -9.52945,-3.75564 -14.11662,-6.21955 -4.20114,-2.25538 -8.14543,-5.23391 -11.95454,-8.08334 -4.21016,-3.14719 -0.39204,-5.71787 -3.44114,-9.6913 2.77873,-1.60187 2.16212,-6.43455 0.97102,-8.859692 1.10399,2.255432 7.25687,-5.356202 7.60984,-6.213712 1.44194,-3.501497 1.01133,-7.391434 -0.83315,-10.674088 z M 288.20875,116.72713 c -1.16407,2.35964 -3.17793,3.82886 -4.52073,6.08577 -1.52455,2.56211 -2.32349,5.59176 -2.3205,8.55732 0.003,2.87474 0.0787,5.17297 1.60175,7.58323 1.487,2.35815 4.56946,4.12565 7.18447,5.07099 1.45395,0.52553 4.76715,-0.0843 4.76715,2.14878 l -0.11145,0.44488 -0.0763,0.0756 c -0.036,0.0387 -0.0351,0.11046 -0.0351,0.11046 l -0.0763,0.22679 -0.26403,0.44488 -0.18775,0.18317 -0.0733,0.25879 -1.27613,0.52048 1.12652,0.0756 0.52512,-0.0378 c 0.0376,-0.0387 0.11445,-0.0378 0.11445,-0.0378 l 0.14675,0 0.29922,0 0.52806,-0.10764 0.52512,-0.15121 1.05023,-0.44778 0.56325,0.14828 0.2611,0.0756 0.29923,0.11047 -0.29923,0.22389 -0.1496,0.11046 c -0.62935,0.82625 -1.58098,0.77008 -2.46717,1.03805 -0.6669,0.19949 -5.03909,0.55116 -5.13973,0.66875 1.07395,-1.27133 3.99349,-3.73713 2.5816,-5.3792 -3.87972,-0.78903 -8.44047,-1.79036 -11.23873,-4.80058 -3.51022,-3.7784 -2.0934,-9.41868 -0.39311,-13.73007 1.21813,-3.08911 3.95822,-7.8863 7.05538,-9.47031 z m 113.01514,0.74147 c 0.15321,1.57954 1.59815,3.14545 2.06528,4.72496 0.65638,2.21524 1.1445,4.68544 1.25265,6.99298 0.17273,3.73226 -0.40442,8.91851 -2.11221,12.3024 -0.50769,1.00787 -4.13982,6.8424 -4.99597,6.44342 -0.79307,-0.36771 -1.53536,-1.04855 -1.92739,-1.84056 -1.44344,1.10613 -1.21504,2.81275 -1.81885,4.19578 -1.04391,-1.31901 -1.73101,-2.60109 -1.97433,-4.26847 0.21627,1.48773 -3.01977,3.22265 -4.71141,3.76254 -0.0291,-0.0341 -0.0589,-0.0737 -0.088,-0.10763 0.0293,0.0341 0.0511,0.0753 0.0792,0.11046 -0.26685,0.0849 -0.50299,0.14396 -0.67181,0.16282 2.58948,-1.86687 4.71845,-6.62581 5.16906,-9.38889 0.61282,2.44003 1.73501,4.98893 1.80711,7.55997 0.32593,-1.97406 1.63563,-3.30486 2.81922,-4.71916 -0.0871,1.1493 0.76821,2.17066 1.59883,2.84952 0.0631,0.0506 3.7805,-6.34021 4.13348,-7.20814 1.32478,-3.25139 1.29911,-7.22456 1.32013,-10.67992 0.0195,-3.79925 -1.59802,-7.29092 -1.94499,-10.89216 z m 43.18888,12.44776 c 0.28989,0.76675 0.75337,1.47115 1.27907,2.16043 3.25938,4.24586 4.08952,11.62631 1.58415,16.46618 0.024,-1.37857 0.10559,-2.81723 -0.33149,-4.07075 2.26053,-3.49852 -1.25051,-11.16004 -2.53173,-14.55586 z m 1.34067,18.1294 c 0.006,0.0744 0.012,0.20644 0.015,0.39254 0.0391,2.69013 -0.1811,16.321 -0.7158,16.31207 -1.43294,-0.0342 -2.53769,-1.23582 -3.91053,-1.23285 1.10848,1.6525 2.02915,5.75086 2.0682,7.69663 0.0391,1.9815 -1.59519,5.42985 -3.6905,3.02108 -1.43143,-1.64951 -1.88074,-4.2248 -2.80749,-6.08869 -1.22865,4.82647 -5.20909,13.05732 -10.9483,14.34359 3.33749,-2.6559 6.61174,-6.28324 8.83022,-9.89192 1.39988,-2.27776 2.62377,-5.00552 2.32637,-7.73734 1.39537,2.13782 1.73624,6.89129 4.82289,7.32153 0.56326,0.0774 -1.10143,-4.95082 -1.17052,-5.23963 -0.49116,-2.04552 -0.48332,-4.18876 -1.01504,-6.22534 1.21513,1.04658 2.83532,1.62353 4.15108,2.50932 -1.23465,-0.83072 -0.22181,-5.73793 -0.0822,-6.9319 0.33195,-2.82562 0.94629,-5.64381 2.12688,-8.24909 z m -58.75473,1.75042 c 0.93572,1.17606 1.24151,2.91737 1.02678,4.41095 0.21122,-1.49058 -0.0928,-3.23705 -1.02678,-4.41095 z m -66.32057,2.69251 c 1.35526,2.04041 5.36306,-0.42955 7.74185,1.78531 -2.85511,4.84983 3.01496,7.48253 6.92338,7.85656 2.15339,0.20656 4.29738,0.16687 6.23103,-0.46814 2.2271,-0.73131 1.56373,-1.70596 4.31536,-0.95372 0.0581,2.74938 4.34077,4.06095 6.5948,3.4078 1.51262,-0.44102 1.79605,-1.60447 2.87202,-2.14878 1.29997,-0.65313 2.84361,0.3777 3.75798,-1.58177 1.21633,1.55752 2.31788,3.89452 4.90505,3.90792 3.87439,0.0134 5.59186,-3.91968 6.87056,-6.88539 0.10184,0.10273 0.18362,0.2197 0.27283,0.33149 0.54155,-0.99601 1.01808,-2.02848 1.42573,-2.98039 -0.40824,0.95325 -0.88336,1.98643 -1.42573,2.98329 1.18521,1.48693 1.3734,3.6883 3.45581,4.47201 2.24694,0.84715 4.58857,-0.56594 4.685,-2.98038 0.24525,0.43683 0.71466,0.80009 0.93582,1.16017 0.24525,-0.6448 0.83684,-1.06749 0.69234,-2.1575 4.0587,4.28878 5.97007,-2.71946 3.47929,-5.59727 1.46159,1.68871 2.97691,3.58013 4.3095,5.62054 2.05129,3.1318 3.67116,6.60824 4.00147,10.21176 0.55288,6.08216 -1.38614,12.65117 -4.42978,17.91131 -1.10151,1.90644 -2.48473,3.69376 -3.75211,5.53041 -1.37652,1.99716 -1.50801,2.60515 -1.80712,4.97213 -0.48909,3.86034 -3.42589,8.65145 -8.01761,7.10927 -1.10291,2.173 -1.49527,4.71843 -2.18848,7.03658 -0.72725,2.43259 -1.97903,4.72777 -2.96003,7.05985 -1.80323,4.28181 -3.82226,8.15377 -5.92887,12.21226 -1.98751,3.83381 -5.39193,7.5377 -9.27908,9.51392 -2.49928,1.27003 -4.36591,1.774 -7.17566,1.92198 -5.1076,0.16255 -10.96356,-2.8754 -16.83023,-2.1575 -11.23333,-2.61403 -14.94717,-10.12412 -17.49324,-20.57183 -0.88035,-3.6105 -0.47541,-7.4411 -3.18592,-10.06348 -4.0119,-3.87986 -8.31948,-7.02128 -11.69345,-11.49988 -3.09611,-4.10872 -5.45444,-9.16415 -5.94353,-14.1284 -0.51884,-5.25597 0.16926,-9.93106 2.51119,-14.59946 1.23334,-2.4591 3.32376,-4.66914 4.08362,-7.33898 0.68613,-2.40748 0.23556,-5.1774 0.17602,-7.65883 0.98808,-0.0418 1.81478,-0.31731 2.75467,-0.91883 2.82393,3.03829 4.31355,4.52165 9.12359,4.10856 3.52423,-0.30286 8.06254,-1.07028 9.99193,-4.42259 z m 6.12836,69.03412 c -2.02168,0.0246 0.65925,4.23079 1.13238,5.10589 0.6684,1.22523 1.89095,2.03961 2.75762,3.09959 1.09797,1.34134 2.1398,2.70706 3.59075,3.69856 1.25869,0.86346 2.57315,1.52781 4.06015,1.90743 1.69428,0.43323 0.80959,2.83095 0.37551,4.12019 -0.44911,1.33837 1.40446,1.25798 2.06234,0.55827 0.71046,-0.75925 0.66481,-2.72459 0.52512,-3.7131 5.22551,-0.4094 9.739,-2.14108 13.83498,-5.38503 -0.49416,-0.34092 -0.812,-0.69 -1.46388,-0.77634 1.32929,-0.76074 2.6548,-1.52577 3.97508,-2.30289 0.47614,-0.661 1.66123,-3.3841 0,-3.71311 -0.4461,-0.0878 -2.1573,1.54885 -2.54933,1.83766 -1.30225,0.9647 -2.7938,1.68473 -4.25376,2.37848 -6.04412,2.87325 -12.9948,1.89329 -18.55227,-0.97698 -1.79489,-0.92451 -2.35854,-1.20887 -3.61423,-3.03852 -0.41455,-0.60294 -0.71557,-2.59889 -1.41401,-2.74777 -0.17864,-0.0378 -0.33168,-0.0539 -0.46645,-0.0523 z m 424.76016,75.11117 2.58454,0.18319 0.52512,0.52338 -0.25817,0.51757 -0.22589,0.29658 -0.22882,0.29949 -0.0733,0.51757 -0.11145,0.55536 -0.74808,0.52339 0.44884,-0.11344 0.48406,-0.0379 0.9769,0.0379 0.90062,0.14828 0.90063,0.33438 0.1496,0.11345 0.0352,0.0727 0.0791,0.14544 -0.0411,0 0,0.0406 0,0.0756 0,0.14545 -0.0382,0 0,0.0379 0,0.0756 0,0.14828 -0.22295,0.55828 -0.22296,0.55537 -0.0792,0.52047 -0.0352,0.22097 -0.0733,0.2966 -0.56619,0.59607 0.0733,0.51757 0.0792,0.52047 0.1496,0.55828 0.45178,1.11073 0.10859,0.11343 0.26404,-0.0756 0.29922,-0.0727 0.1086,-0.0785 0.15254,-0.0348 0.30511,-0.0726 0.0704,-0.0727 0,-0.0379 0.0412,0 0.0733,0 0.22296,-0.0756 0.41364,0.0756 0.44885,0.11047 0.15255,0.25877 0.11145,0.33438 0.0763,0.74147 0.0381,0.81705 0.0763,0.11344 0.1086,0.14829 0.1496,0.29658 0.41364,0.52048 0,0.51755 0,2.1546 0.52219,0.59316 0.11731,0.52048 0.0733,1.55851 0.93876,1.59632 0.86249,1.63121 0.18775,0.52047 0.1496,0.52048 0.1086,0.52047 0.0763,0.59608 0.97691,1.44511 0.93582,1.48583 0.86249,1.52362 0.86249,1.55561 0.18775,0.40998 0.26402,0.44488 0.56033,0.81706 0.63953,0.74437 0.71287,0.74145 0.14961,0.52047 0,0.51758 0.33736,0.29948 0.33737,0.36928 0.41364,0.44487 0.37256,0.52047 -0.52217,-0.11046 -0.52512,-0.18609 -0.52805,-0.29657 -0.49286,-0.37219 -0.51925,-0.55537 -0.44885,-0.59608 -0.48698,-0.74146 -0.45178,-0.81414 -1.15877,-2.079 -1.16172,-2.04409 -1.27613,-2.0441 -1.31427,-2.00048 0,-0.52047 0,-0.52048 -0.30216,-0.40998 -0.22296,-0.36929 -0.37551,-0.81705 -0.30216,-0.63388 -0.2963,-0.55535 -0.3403,-0.52048 -0.33737,-0.44487 0.0382,-0.74147 0,-0.70657 -0.11145,-0.70365 -0.18481,-0.66876 -0.26404,-0.63097 -0.11731,-0.63097 -0.10559,-0.66877 0.0323,-0.66877 -0.18775,-0.51755 -0.1496,-0.29659 -0.0733,-0.1512 -0.0381,-0.0727 0,-0.0379 -0.22295,-0.52048 -0.11445,-0.25879 -0.26108,0.0379 -0.18775,0.11046 -0.34031,0.33438 -1.12065,-0.22389 -0.45177,-0.33438 -0.33737,-0.29659 -0.29923,-0.37218 -0.22589,-0.33439 -0.22589,-0.40416 -0.11145,-0.40998 -0.0733,-0.44487 0,-0.44488 0.0323,-1.37534 0.26695,-1.33462 0.2611,-0.29658 0.22295,-0.29949 0.30217,-0.47978 0.29923,-0.48557 0.0382,-0.1861 -0.82435,0.0348 -0.44885,0.0406 -0.41657,0.11046 -0.0733,0.26168 -0.44885,0.2617 -1.989,-0.19192 -0.41657,-0.29657 -0.25522,-0.29368 -0.26404,-0.22099 -0.15255,-0.26168 0,-0.55537 -1.23799,0.11047 -1.12357,0.0379 -1.12066,-0.0379 -1.0561,-0.11047 -1.04731,-0.2239 -0.93876,-0.25877 -0.93582,-0.37218 -0.86249,-0.40999 2.20902,-0.92755 1.12945,-0.40708 1.16465,-0.26168 2.2853,-0.40709 1.19986,-0.11344 1.19984,-0.0348 z m 21.78514,34.63628 1.05024,0.14828 0.33736,0.66877 0.41072,0.70365 0.41364,0.66585 0.48698,0.70658 0.33735,0.52338 0.85956,0.0698 0.90356,0.0406 0.89769,-0.0406 0.9769,-0.0698 -0.41364,1.03804 -0.52512,1.03804 -0.14675,0.29658 -0.18775,0.29659 0.33444,0.67167 0.41364,0.70075 0.90063,1.34043 1.05024,1.25904 1.27613,1.26484 0.59846,0.63097 0.22589,0.33146 0.22294,0.40998 0.11446,0.14829 0.1496,0.11344 0.48697,0.22098 0.60139,0.26169 0.0352,0.51758 0.0381,0.52047 0.0382,0.59315 0.82143,1.07875 0.90355,1.07295 0.93876,1.03803 1.04731,1.04387 0.67767,0.59025 -1.68684,0.66877 -0.6014,-0.44488 -0.48991,-0.44488 -0.48405,-0.48267 -0.37551,-0.47976 -0.37843,-0.55537 -0.29631,-0.59898 -0.26108,-0.63097 -0.19069,-0.63097 -0.33737,-0.51757 0,-0.59315 0,-0.40998 0,-0.44198 0,-0.11345 -1.46094,-0.48557 -1.989,-2.70705 -2.10048,-2.63728 -0.93877,-1.03803 0.0733,-1.07875 0.26696,-1.11365 -0.52218,-0.36926 -0.11445,-0.0756 -0.0763,-0.0379 -0.15254,-0.0726 -0.37258,-0.14828 -0.44883,-0.22389 -0.48993,-0.14545 -0.5251,-0.18609 -0.56033,-0.15119 -0.48991,-0.55537 -0.44885,-0.45069 -0.52219,-0.40417 -0.48992,-0.29659 -0.56033,-0.33438 -0.56325,-0.22389 -0.6014,-0.18609 -0.60139,-0.0727 0.15256,-0.0379 0.18481,0 0.3755,-0.0379 0.30217,-0.11046 0.29923,-0.0756 0.22883,-0.14544 0.22294,-0.14828 0.14961,-0.22389 0.0733,-0.11046 0.11145,-0.0756 0.1496,-0.1861 0.26403,-0.0726 z"
       id="path4182"
       inkscape:connector-curvature="0"
       style="fill:#000000;stroke:none;stroke-width:4;stroke-miterlimit:4;stroke-dasharray:none;stroke-opacity:1;fill-opacity:0.25098041"
       sodipodi:nodetypes="ccccccccccccccccccccccccccccccccccccccccccccccccccccccccccccscccccccccccccccccccccccccccccccccsccccccccccccccccccccccccccsccccccccccccccccccccccccccccccsccccccccccccccccccccccccccccccccccccccccccccccccccccccccccccccccccccccccccccccccccccccccccccccccccccccccccccccccccccccccccccscccccccccccccccsccccccccccccccccccccccccccccccccccccccccccccccccccccccccccccccccccccccccccccccccccccccccccsccccccccccccccccccccccccccccccccccccccccccccccccccccccccccccccccccccccccccccccccccccccccccccccccccccccccccccccccccccccccccccccccccccccccccccccccccccccccccccccccccccccccccccccccccccccccccccccccccccccccccccccccccccccccccccccccccccccccccccccccccccccccccccccccccccccccccccccccccccccccccccccccccccccccccccccccccccccccccccccccccccccccccccccccccccccccccccccccccccccccccccccccccccccccccccccccccccccccccccccccccccccccccccccccccccccccccccccccccccccccccccccccccccccccccccccccccccccccccccccccccccccccccccccccccccccccccccccccccccccccccccccccccccccccccccccccccccccccccccccccccccccccc" /></g></svg>