<?xml version="1.0" encoding="UTF-8" standalone="no"?>
<!-- Generator: Adobe Illustrator 12.0.0, SVG Export Plug-In . SVG Version: 6.00 Build 51448)  -->

<svg
   xmlns:osb="http://www.openswatchbook.org/uri/2009/osb"
   xmlns:dc="http://purl.org/dc/elements/1.1/"
   xmlns:cc="http://creativecommons.org/ns#"
   xmlns:rdf="http://www.w3.org/1999/02/22-rdf-syntax-ns#"
   xmlns:svg="http://www.w3.org/2000/svg"
   xmlns="http://www.w3.org/2000/svg"
   xmlns:sodipodi="http://sodipodi.sourceforge.net/DTD/sodipodi-0.dtd"
   xmlns:inkscape="http://www.inkscape.org/namespaces/inkscape"
   version="1.1"
   id="Layer_1"
   width="39.999805"
   height="24.000099"
   viewBox="0 0 39.999805 24.0001"
   overflow="visible"
   enable-background="new 0 0 563.971 420.947"
   xml:space="preserve"
   inkscape:version="0.91pre3 r13670"
   sodipodi:docname="shepherdIcon.svg"
   style="overflow:visible"><metadata
     id="metadata4226"><rdf:RDF><cc:Work
         rdf:about=""><dc:format>image/svg+xml</dc:format><dc:type
           rdf:resource="http://purl.org/dc/dcmitype/StillImage" /><dc:title></dc:title></cc:Work></rdf:RDF></metadata><defs
     id="defs4224"><linearGradient
       id="linearGradient4240"
       osb:paint="solid"><stop
         style="stop-color:#000000;stop-opacity:1;"
         offset="0"
         id="stop4242" /></linearGradient></defs><sodipodi:namedview
     pagecolor="#ffffff"
     bordercolor="#666666"
     borderopacity="1"
     objecttolerance="10"
     gridtolerance="10"
     guidetolerance="10"
     inkscape:pageopacity="0"
     inkscape:pageshadow="2"
     inkscape:window-width="1366"
     inkscape:window-height="715"
     id="namedview4222"
     showgrid="false"
     fit-margin-top="0"
     fit-margin-left="0"
     fit-margin-right="5"
     fit-margin-bottom="0"
     inkscape:zoom="20.742972"
     inkscape:cx="9.7864486"
     inkscape:cy="12.000057"
     inkscape:window-x="-8"
     inkscape:window-y="-8"
     inkscape:window-maximized="1"
     inkscape:current-layer="g4180" /><g
     id="g4180"
     transform="translate(-209.1819,-507.25511)"><path
       d="m 238.62436,507.25516 c -0.15269,-8.5e-4 -0.3053,0.009 -0.46376,0.0273 -0.3332,0.0381 -0.66881,0.03 -1.00339,0.0472 -0.68206,0.0348 -1.39441,0.0591 -2.05905,0.2233 -0.19217,0.0474 -0.38256,0.0794 -0.57979,0.0973 0.002,-0.26816 -0.54023,-0.2171 -0.7006,-0.17827 -0.29325,0.0714 -0.56383,0.18628 -0.86463,0.23993 -0.70414,0.12545 -1.42097,0.20353 -2.12976,0.30248 -0.63808,0.089 -1.2821,0.0748 -1.91925,0.17649 -0.16339,0.0261 -0.32453,0.067 -0.48751,0.0927 -0.14696,0.0233 -0.2828,-0.007 -0.4218,0.0637 -0.0737,0.0376 -0.0898,0.0709 -0.17868,0.0689 -0.0813,-0.002 -0.1638,-0.009 -0.24286,-0.0282 -0.13007,-0.0324 -0.26374,-0.1277 -0.39984,-0.11113 -0.17239,0.0207 -0.34854,0.0566 -0.50561,0.13283 -0.11095,0.0537 -0.22857,0.16359 -0.34798,0.18892 -0.33374,0.0706 -0.68731,0.053 -1.02394,0.11635 -0.16561,0.0311 -0.32898,0.0732 -0.48881,0.12586 -0.0803,0.0263 -0.15855,0.0555 -0.23681,0.0869 -0.0506,0.0203 -0.14469,-0.032 -0.20359,-0.0377 -0.14182,-0.0136 -0.28506,-0.002 -0.41768,0.0528 -0.054,0.0225 -0.11203,-0.0107 -0.17059,0.002 -0.0787,0.0165 -0.16022,0.054 -0.24453,0.0704 -0.68342,0.13278 -1.35311,0.0899 -2.03567,-0.016 -0.68659,-0.10671 -1.38664,-0.15172 -2.08137,-0.13626 -0.28792,0.006 -0.57684,0.045 -0.8459,0.15124 -0.0716,0.0283 -0.13964,0.0588 -0.20872,0.0926 -0.0417,0.0203 -0.0874,-0.15165 -0.0984,-0.1742 -0.0615,-0.12719 -0.22838,-0.21356 -0.36172,-0.23966 -0.13197,-0.0259 -0.26729,0.0189 -0.37508,-0.06 -0.12178,-0.0894 -0.21895,-0.19986 -0.35491,-0.26897 -0.25888,-0.13189 -0.54512,-0.19548 -0.83435,-0.20809 0.0461,-0.0577 0.12697,-0.19719 0.0876,-0.25833 -0.0336,-0.0523 -0.0809,-0.0646 -0.13208,-0.0543 -0.047,0.009 -0.0773,0.0314 -0.10833,0.0697 -0.041,0.0507 -0.0324,0.0687 -0.0968,0.10442 -0.0464,0.0258 -0.0937,0.10414 -0.14274,0.10785 -0.0483,0.004 -0.0959,0.0114 -0.14427,0.0161 -0.25749,0.0255 -0.52783,0.0496 -0.77671,-0.0325 -0.11488,-0.0378 -0.2696,-0.0844 -0.34722,-0.17635 -0.0274,-0.0325 -0.0592,-0.0605 -0.0993,-0.0763 -0.0517,-0.0203 -0.0955,0.0188 -0.13208,-0.0356 -0.12211,0.007 -0.15553,0.24375 -0.18214,0.34294 -0.025,0.0931 -0.10073,0.0299 -0.18214,0.0168 -0.0806,-0.013 -0.16157,-0.013 -0.24275,-0.009 -0.0754,0.003 -0.0649,0.0796 -0.0954,0.12435 -0.026,0.0385 -0.003,0.0337 -0.077,0.0472 -0.0339,0.006 -0.068,0.0109 -0.10178,0.0161 -0.16496,0.0253 -0.31308,0.0278 -0.43067,0.15949 -0.0483,0.0541 -0.0679,0.12846 -0.0779,0.1983 -0.0138,0.0957 -0.0204,0.10665 -0.10745,0.1572 -0.10896,0.0633 -0.24519,0.0868 -0.37005,0.0811 -0.059,-0.003 -0.0906,0.0614 -0.15725,0.0736 -0.0944,0.0172 -0.18747,0.0354 -0.28097,0.0561 -0.17154,0.0378 -0.34058,0.0838 -0.50934,0.13222 -0.12356,0.0353 -0.20613,0.14339 -0.29729,0.22862 -0.11554,0.1081 -0.2264,0.22147 -0.33938,0.33203 -0.0796,0.0777 -0.2147,0.16242 -0.22206,0.27875 -0.009,0.13539 0.17358,0.17714 0.27571,0.23347 -0.10751,0.13017 0.0461,0.19164 0.14184,0.26136 0.11548,0.084 0.4325,0.16757 0.25493,0.3503 -0.003,0.003 -0.005,0.004 -0.008,0.006 -0.001,6e-5 -0.002,4.5e-4 -0.003,5.2e-4 -0.0651,0.002 -0.14617,-0.0404 -0.19126,-0.0317 -0.13644,0.0258 -0.34027,0.19498 -0.44502,0.28281 -0.1369,0.11478 -0.18926,0.26862 -0.30718,0.39204 -0.26399,0.27623 -0.63321,0.49208 -1.0021,0.59316 -0.17614,0.0483 -0.32644,0.0563 -0.30409,0.25691 0.0119,0.10727 -0.006,0.11205 0.10808,0.15773 0.13913,0.0557 0.28827,0.0873 0.43719,0.0963 l 0.082,0.002 0.0837,0 0.3806,-0.013 0.37982,-0.0161 c -0.005,0.13671 0.001,0.28354 0.0595,0.2455 -0.16667,0.10881 -0.66311,0.51392 -0.30177,0.65761 -0.0847,0.0946 -0.14834,0.26929 -0.1091,0.39357 0.0178,0.0562 0.0604,0.0955 0.1132,0.12002 0.0327,0.0151 0.0679,0.0235 0.10332,0.0292 0.0402,0.006 0.009,0.0942 0.004,0.12891 -0.0291,0.21945 -0.11547,0.64491 0.12645,0.77497 0.0823,0.0442 0.11022,0.0202 0.14439,0.11647 0.0264,0.0743 0.0538,0.14783 0.0867,0.21962 0.0677,0.14688 0.15104,0.28174 0.25955,0.40283 0.0505,0.0565 0.10589,0.10804 0.16405,0.15682 0.0297,0.0251 0.0622,0.0472 0.0939,0.07 0.0289,0.0208 0.003,0.0732 0.003,0.10492 -2.6e-4,0.10001 0.0435,0.16806 0.14608,0.18703 0.0872,0.0161 0.0826,0.0451 0.1258,0.12307 0.0363,0.0658 0.0796,0.13113 0.1358,0.18206 0.091,0.0828 0.17977,0.16179 0.27815,0.23409 0.12166,0.0896 0.27108,0.15619 0.40357,0.22927 0.0612,0.0338 0.12257,0.0674 0.18369,0.10124 0.0588,0.0328 0.0461,0.0671 0.0788,0.1175 0.0214,0.0329 0.0591,0.0377 0.0591,0.0875 0,0.0598 0.0178,0.0724 0.0706,0.0939 0.0993,0.0403 0.19241,-0.0135 0.26147,-0.0815 0.018,-0.018 0.10507,0.0378 0.13786,0.0419 0.11522,0.0134 0.17596,-0.0452 0.23105,-0.11483 0.10145,0.12077 0.0889,0.28673 0.12721,0.44419 0.11804,0.48629 0.29021,0.83573 0.81098,0.95741 0.002,-2.2e-4 0.003,-2.2e-4 0.005,-3.9e-4 0.0191,0.14146 0.14079,0.21518 0.358,0.11762 0.0469,0.1112 0.17833,0.17541 0.2173,0.28039 0.038,0.10238 -0.0173,0.21726 -0.0385,0.31833 -0.0204,0.0972 -0.0357,0.19618 -0.0452,0.29487 -0.008,0.0867 0.0366,0.0962 0.11899,0.1053 0.15785,0.0172 0.2793,-0.0728 0.37571,-0.18638 0.0202,0.14785 0.0955,0.288 0.2322,0.35881 0.0618,0.032 0.13001,0.0269 0.19101,0.051 0.0564,0.0222 0.0473,-0.002 0.05,0.068 0.002,0.0455 0.009,0.0911 0.0188,0.13576 0.0687,0.32571 0.20057,0.62886 0.33155,0.93495 0.12284,0.28713 0.30916,0.56456 0.55619,0.76633 0.11029,0.0898 0.23161,0.11555 0.36918,0.0817 0.0454,-0.0112 0.23698,0.34625 0.28213,0.39776 0.0921,0.10491 0.21145,0.14601 0.34939,0.12562 0.076,-0.0114 0.10548,0.0402 0.1756,0.0719 0.0772,0.0353 0.16628,0.045 0.24877,0.0617 0.32084,0.0652 0.66795,0.0811 0.95962,0.23877 0.0678,0.0366 0.14095,0.0619 0.12965,0.1369 -0.0112,0.0751 9e-4,0.15474 9e-4,0.23041 0,0.15187 -0.0518,0.30564 -0.10333,0.44674 -0.0369,0.10108 -0.115,0.28609 0.013,0.34903 0.0726,0.0357 0.15369,0.0307 0.19858,-0.0469 0.0293,-0.0507 0.0843,-0.072 0.13786,-0.0933 -0.0315,0.10564 -0.0311,0.22188 -0.0558,0.32899 -0.0343,0.14832 -0.0179,0.32508 0.16083,0.34904 0.0255,0.004 0.0871,-0.013 0.10231,0.004 0.0288,0.0317 0.0577,0.0632 0.0848,0.0962 0.0539,0.0654 0.10127,0.13473 0.14274,0.20846 0.071,0.12654 0.12216,0.28065 0.13773,0.4244 0.0194,0.17883 -0.0484,0.34732 -0.0996,0.51549 -0.047,0.15363 -0.0881,0.30868 -0.14069,0.46071 -0.0499,0.14446 -0.1226,0.27684 -0.19857,0.4089 -0.0295,0.0511 -0.0209,0.1093 -0.0336,0.16671 -0.0143,0.0643 -0.0459,0.1199 -0.0692,0.18068 -0.0438,0.11408 -0.0372,0.24017 -0.0504,0.35983 -0.006,0.0548 -0.1031,0.0838 -0.14864,0.11786 -0.0621,0.0463 -0.11452,0.1008 -0.16289,0.16077 -0.18178,0.22566 -0.29808,0.5122 -0.46697,0.75021 -0.11199,0.15785 -0.22272,0.31629 -0.33207,0.47605 -0.061,0.089 -0.14537,0.2336 -0.148,0.34053 -0.002,0.0687 0.0183,0.10832 -0.002,0.17434 -0.0232,0.0742 -0.0367,0.15228 -0.047,0.22912 -0.0119,0.0892 -0.0725,0.33616 0.0503,0.35766 0.3119,0.0547 0.6205,0.0732 0.93523,0.0288 0.25145,-0.0354 0.58453,-0.0614 0.78314,-0.23725 0.0558,-0.0494 0.0987,-0.11358 0.12976,-0.17991 0.0305,-0.0658 0.0226,-0.0923 0.0985,-0.10771 0.10075,-0.0209 0.16427,-0.10998 0.25608,-0.12206 0.25493,-0.0331 0.47455,-0.15865 0.55092,-0.4135 0.0168,-0.0558 0.0231,-0.11332 0.0231,-0.17153 0,-0.0618 0.0873,-0.10191 0.12554,-0.15238 0.0573,-0.0756 0.0969,-0.14988 0.11886,-0.24297 0.0752,-0.31805 0.11529,-0.63465 0.21886,-0.94789 0.10817,-0.32773 0.21309,-0.66357 0.38251,-0.96604 0.073,-0.1305 0.16566,-0.24812 0.24453,-0.37491 0.0443,-0.0715 0.085,-0.14373 0.12297,-0.21862 0.023,-0.0453 0.0617,-0.18504 0.11154,-0.19602 0.0916,-0.0202 0.11068,-0.0924 0.16482,-0.15136 0.006,-0.007 0.01,-0.0138 0.012,-0.0208 l -2.6e-4,-2.6e-4 -0.003,-0.0181 0.002,-0.0145 0.008,-0.0277 7.6e-4,-10e-4 c 0.002,-0.007 0.005,-0.0149 0.01,-0.0232 0.0329,-0.054 0.0952,-0.0791 0.12874,-0.13348 0.0419,-0.0677 0.0749,-0.14041 0.11991,-0.20415 0.001,-0.002 0.003,-0.005 0.005,-0.007 l 0.007,-0.0168 0.003,-0.006 0.005,-0.003 0.009,-0.004 c 0.0219,-0.025 0.0496,-0.0437 0.0841,-0.01 0.004,0.004 0.006,0.0132 0.008,0.0237 0.004,0.0203 0.006,0.0469 0.01,0.0589 0.004,-0.0139 0.009,-0.0271 0.0137,-0.0402 l 0.001,-0.006 0.001,-8.9e-4 c 0.007,-0.0206 0.015,-0.0402 0.0237,-0.0581 l 0,-0.009 0.003,-0.0146 0.008,-0.008 0.0237,-0.0233 c 0.008,-0.0104 0.0173,-0.0204 0.0274,-0.028 l 0.0163,-0.015 0.0148,-0.006 0.0163,-0.003 0.0106,-5.2e-4 c 0.031,-0.005 0.0685,-10e-4 0.11424,0.0141 l -0.002,-0.009 0.002,-0.0131 0.006,-0.009 c 0.005,-0.0215 0.0193,-0.0404 0.0297,-0.0617 l 0.002,-0.009 0.01,-0.0226 c 0.01,-0.0303 0.0137,-0.0595 0.0212,-0.09 l 0.002,-0.007 0.002,-0.006 c 0.002,-0.006 0.003,-0.0115 0.005,-0.0176 0.009,-0.0263 0.008,-0.0689 0.0131,-0.10239 l -7.7e-4,-0.0132 0.005,-0.005 c 0.002,-0.008 0.005,-0.0149 0.01,-0.0199 0.005,-0.006 0.0104,-0.0154 0.0151,-0.0253 l 0.001,-0.0208 0,-0.0227 0.0217,-0.0245 c 10e-4,-0.004 0.002,-0.007 0.003,-0.0112 0.002,-0.009 0.005,-0.0177 0.007,-0.0249 l 0,-0.009 0,-0.005 0.002,-0.003 0,-0.0162 -0.002,-0.0211 0.003,-0.0193 0.007,-0.0181 0.007,-0.009 c 0.003,-0.0298 0.005,-0.0595 0.009,-0.0888 l -0.001,-0.0104 0.0114,-0.0357 0.001,-0.004 c 8e-4,-0.003 0.001,-0.006 0.002,-0.008 0.0337,-0.1049 0.0666,-0.21207 0.10539,-0.31669 l 0.001,-0.005 0.005,-0.0128 c 0.01,-0.0256 0.0194,-0.0513 0.0299,-0.0764 0.004,-0.0102 0.01,-0.0195 0.0145,-0.0296 l 0.006,-0.0141 0.0129,-0.0245 c 0.0531,-0.1021 0.12091,-0.19583 0.17303,-0.29866 0.0311,-0.0613 0.0559,-0.12025 0.0798,-0.17927 l 0,-0.003 0,-0.0242 0.0295,-0.0534 0.0131,-0.0277 0.008,-0.0146 c 0.005,-0.0128 0.01,-0.025 0.0157,-0.0381 0.0249,-0.0554 0.05,-0.16114 0.10526,-0.19615 0.0614,-0.0388 0.15771,8.8e-4 0.2277,0.0119 0.0416,0.007 0.11487,-10e-4 0.11913,0.0398 l 0.004,0.004 -0.008,0.0226 -0.006,0.006 c -0.002,0.003 -0.004,0.006 -0.007,0.008 l -0.006,0.008 -0.0294,0.026 -0.10345,0 -0.0409,-0.0226 -0.018,-0.0129 -0.0197,-0.0131 -0.049,0 c -0.003,0.003 -0.007,0.006 -0.01,0.01 l -0.0329,0.0648 -0.0262,0.0745 -0.0182,0.0357 -0.01,0.0161 -0.01,0.018 -0.0247,0.0323 -0.0178,0.0232 c -0.002,0.004 -0.005,0.008 -0.007,0.0119 l 0,0.0198 0,0.0227 -0.11333,0.21874 -0.10501,0.22342 -0.0935,0.20935 c -0.007,0.0163 -0.0136,0.0327 -0.0205,0.049 l -0.0779,0.19374 -0.0205,0.0539 c -3e-5,4e-5 -1.3e-4,2.2e-4 -1.3e-4,2.6e-4 -0.0112,0.0342 -0.021,0.0689 -0.0281,0.10494 -0.009,0.0476 -0.0155,0.0923 -0.0192,0.14083 -3.6e-4,0.004 -0.002,0.008 -0.003,0.0114 l -10e-4,0.0141 -0.0129,0.0186 c -0.008,0.0147 -0.0169,0.0297 -0.0169,0.0511 0,0.008 -0.002,0.0159 -0.003,0.0238 l 0,5.2e-4 -1.3e-4,1.3e-4 c -0.005,0.0268 -0.017,0.0541 -0.0311,0.0816 l 0,0.0138 -0.018,0.0226 -5.3e-4,6.4e-4 c -0.008,0.0151 -0.0153,0.0303 -0.0226,0.0454 l 0,0.003 0,0.0228 0,0.0226 -0.005,0.01 -0.007,0.0131 -0.01,0.0113 -0.006,0.009 c -3e-5,9.9e-4 -4e-4,0.002 -4e-4,0.003 0,0.013 -0.001,0.0286 -0.003,0.0448 l 0,0.003 0,0.0227 -0.005,0.008 c -0.006,0.0275 -0.0147,0.0535 -0.0274,0.0731 l 0,0.0141 -0.008,0.0226 -0.003,0 -0.002,0 0,0.002 -0.003,0.003 -0.007,0.003 -0.023,0.002 -0.0229,-0.002 -0.0263,-0.0227 -0.023,-0.0227 -0.0196,0.005 -0.0181,0.0112 -0.0137,0.008 c -0.0122,0.0162 -0.0238,0.0357 -0.035,0.058 l -5.3e-4,0.003 0,0.0454 -0.0165,0.0129 -0.0131,0.0162 -0.0115,0.0178 -0.008,0.0211 -0.0163,0.0453 -0.01,0.0486 -0.002,0.003 0,0.005 -0.002,0.01 -0.0132,0.002 -0.007,0 -0.003,0 -0.002,0 0,0.002 -0.003,-0.002 -0.002,0 -0.003,0 -0.007,0 -0.0131,0 -0.003,-0.002 -0.002,0 -0.003,0 -0.007,0 -0.0132,0 -0.0114,-0.026 -0.007,-0.0194 -0.007,-0.0259 -0.006,-0.0227 -0.0493,0.0405 -0.0443,0.0472 -0.0426,0.0501 -0.0377,0.0567 -0.0247,0.0323 -0.023,0.034 -0.0475,0.0681 -0.0215,0.002 -0.007,-6.6e-4 c -0.0288,0.0325 -0.0297,0.0433 0.0388,0.0749 0.0752,0.0346 0.10484,0.022 0.16648,0.0818 0.24461,0.23685 0.43555,0.498 0.59893,0.79488 0.0516,0.0939 0.10328,0.18786 0.15494,0.28167 0.0127,0.0231 -0.0325,0.16887 -0.0283,0.21758 0.006,0.0719 -0.002,0.14393 0.004,0.21557 0.008,0.093 0.0199,0.11001 0.0837,0.16926 0.0603,0.0556 0.0288,0.0702 -0.0138,0.12395 -0.0296,0.037 -0.0262,0.0813 -0.0472,0.12485 -0.0658,0.13642 -0.11636,0.28359 -0.2014,0.40967 -0.0412,0.0609 -0.21475,0.2301 -0.0885,0.29233 0.13736,0.0678 0.33015,0.0833 0.48058,0.10645 0.32592,0.0498 0.65445,0.0402 0.98081,0.003 0.29975,-0.0344 0.42861,-0.18459 0.53488,-0.45827 0.0345,-0.0895 0.023,-0.12716 0.11322,-0.17484 0.0692,-0.0366 0.14183,-0.0788 0.20217,-0.12852 0.0987,-0.0813 0.18869,-0.15184 0.25427,-0.26493 0.17751,-0.30583 -0.002,-0.56614 -0.15416,-0.83586 -0.17205,-0.30439 -0.32545,-0.60624 -0.41344,-0.94599 -0.16819,-0.64974 -0.25174,-1.27813 -0.22091,-1.94754 0.009,-0.18775 0.012,-0.39403 0.14042,-0.54545 0.0572,-0.0675 0.1335,-0.11338 0.21282,-0.1506 0.0486,-0.0229 0.0982,-0.0342 0.15044,-0.0458 0.02,-0.004 0.0541,0.028 0.0767,0.0348 0.42173,0.12667 0.82674,0.13305 1.25818,0.0563 -0.0371,0.21807 0.14008,0.29825 0.32246,0.33241 0.21812,0.041 0.43694,0.0694 0.65875,0.0824 0.48442,0.0285 0.95792,-0.0409 1.42737,-0.15377 0.002,0.15577 0.0612,0.17228 0.20986,0.17814 0.18126,0.007 0.35138,-0.0368 0.51857,-0.10228 -0.0497,0.2212 0.51391,0.22253 0.63707,0.20733 0.16121,-0.0199 0.31213,-0.0998 0.47518,-0.10354 0.16299,-0.004 0.27572,0.07 0.41513,0.13842 0.26905,0.13252 0.54674,0.11355 0.78247,-0.0755 0.0907,-0.0726 0.35686,0.01 0.47699,0.0208 0.13684,0.0124 0.26576,0.0172 0.40075,0.005 0.0897,-0.008 0.17493,0.0204 0.26931,0.0227 0.10915,0.003 0.2158,-0.0224 0.32116,-0.0474 0.21668,-0.0515 0.43396,-0.0781 0.65655,-0.0821 -0.002,0.16812 0.14686,0.23801 0.26699,0.33863 0.13119,0.10999 0.25093,0.22068 0.39715,0.31098 0.28931,0.1787 0.59781,0.32763 0.91175,0.45853 0.30395,0.12662 0.59969,0.304 0.87131,0.48809 0.0884,0.06 0.39467,0.21177 0.39946,0.31681 0.005,0.11447 -0.0158,0.224 -0.0673,0.32722 -0.10442,0.20964 -0.31073,0.37716 -0.49521,0.51714 -0.22989,0.17476 0.0594,0.30608 0.24428,0.27672 -0.0426,0.0581 -0.06,0.12843 -0.0727,0.19806 -0.0162,0.0887 -0.0428,0.13866 -0.0964,0.21493 -0.0921,0.13147 -0.18842,0.26245 -0.301,0.37796 -0.1026,0.10537 -0.24392,0.14949 -0.23734,0.32176 0.002,0.0526 0.0408,0.068 0.0478,0.10683 0.009,0.0483 -0.0377,0.13482 -0.0558,0.19958 -0.0422,0.15102 -0.079,0.3044 -0.14929,0.43556 -0.0196,0.0361 -0.0467,0.0918 -0.0773,0.1199 -0.0483,0.0442 -0.14478,0.0493 -0.2082,0.0891 -0.0925,0.0579 -0.25707,0.25827 -0.15699,0.36616 0.0925,0.0992 0.23836,0.12991 0.36506,0.16583 0.20965,0.0596 0.42113,0.10099 0.63346,0.1501 -0.16259,0.20806 -0.46289,0.47746 -0.47583,0.74984 -10e-4,0.0311 0.009,0.073 -0.007,0.10201 -0.0266,0.0494 -0.12924,0.0876 -0.17919,0.12738 -0.0972,0.0774 -0.23515,0.18953 -0.26031,0.31809 -0.018,0.0916 0.0281,0.16108 0.10256,0.21149 0.0474,0.032 0.10569,0.0469 0.15005,0.0835 0.0642,0.0526 0.0978,0.12733 0.16905,0.17649 0.13348,0.0924 0.31814,0.12196 0.47442,0.15633 0.17265,0.0381 0.34572,0.0634 0.52192,0.0794 0.33926,0.031 0.68875,-0.003 1.02162,-0.0704 0.27984,-0.0567 0.52598,-0.18643 0.68391,-0.42757 0.0289,-0.0443 0.0551,-0.0904 0.0759,-0.13842 0.0443,-0.10213 0.10381,-0.10151 0.21179,-0.13652 0.15359,-0.0502 0.30492,-0.10927 0.45312,-0.17319 0.25223,-0.10855 0.45908,-0.28734 0.66465,-0.46728 0.2105,-0.18424 0.3852,-0.43146 0.4508,-0.70443 0.0766,-0.31849 0.0391,-0.65544 0.0522,-0.98024 0.0135,-0.33812 0.0479,-0.67191 0.10435,-1.0055 0.0291,-0.17305 0.0721,-0.34379 0.11822,-0.51296 0.031,-0.11271 0.13872,-0.24653 0.19562,-0.35131 0.15457,-0.28434 0.19846,-0.62141 0.3073,-0.92367 0.0561,-0.15564 0.11557,-0.30906 0.18189,-0.46081 0.0303,-0.0693 0.0574,-0.14881 0.0984,-0.2124 0.0319,-0.0492 0.0745,-0.085 0.10028,-0.13841 0.12639,-0.26265 0.10836,-0.60131 0.0146,-0.87063 -0.0487,-0.13993 -0.11422,-0.26327 -0.15326,-0.40689 -0.0415,-0.15286 -0.0914,-0.305 -0.14337,-0.4546 -0.0987,-0.28343 -0.22569,-0.56383 -0.28227,-0.85947 -0.0554,-0.28972 -0.0766,-0.57913 -0.0624,-0.87378 0.0301,-0.62591 0.17637,-1.23805 0.28047,-1.85343 0.0357,0.0578 0.0447,0.14157 0.0985,0.18309 0.0497,0.0384 0.15416,0.0433 0.19523,-0.0131 0.0409,-0.0562 0.0186,-0.23247 0.0205,-0.29866 0.003,-0.11589 0.003,-0.23156 0.001,-0.34765 0.20511,0.0661 0.30755,-0.13007 0.26903,-0.29968 -0.0368,-0.16182 -0.0632,-0.29769 0.007,-0.45612 0.0672,-0.15142 0.13426,-0.30314 0.19794,-0.45587 0.0642,-0.1537 0.12594,-0.30817 0.18805,-0.46284 0.0606,-0.15156 0.15663,-0.28087 0.23502,-0.42327 0.13934,-0.25251 0.24754,-0.52136 0.31359,-0.8016 0.16852,-0.71405 0.12196,-1.48949 0.0802,-2.21629 0.10595,0.0625 0.15574,0.0252 0.25275,-0.005 0.027,-0.008 0.0196,-0.0325 0.0523,-0.0177 0.0299,0.0135 0.0609,0.0216 0.0938,0.0226 0.0496,10e-4 0.10319,-0.013 0.14439,-0.042 0.1463,-0.10284 0.23317,-0.38516 0.27727,-0.54925 0.0595,-0.22237 0.066,-0.44369 0.072,-0.67371 0.002,-0.0701 0.006,-0.10377 0.0347,-0.15885 0.0168,-0.0325 0.0363,-0.0288 0.048,-0.0743 0.008,-0.029 0.0154,-0.0581 0.0201,-0.0875 0.0157,-0.1036 0.0297,-0.20382 0.0252,-0.30945 -0.006,-0.31719 -0.11365,-0.61972 -0.1774,-0.92808 -0.0624,-0.30208 -0.0847,-0.58941 -0.26725,-0.85212 -0.0612,-0.0879 -0.033,-0.0815 0.001,-0.17547 0.0263,-0.072 0.042,-0.1443 0.0219,-0.22063 -0.0369,-0.13979 -0.16701,-0.22763 -0.28985,-0.2898 -0.30113,-0.15232 -0.59372,-0.32616 -0.89826,-0.4707 -0.60694,-0.28783 -1.22616,-0.5164 -1.79616,-0.87862 -0.27426,-0.17423 -0.53971,-0.33047 -0.86733,-0.38114 -0.0378,-0.006 -0.076,-0.009 -0.11399,-0.0126 -0.0174,-0.002 -0.0114,-0.037 -0.0276,-0.0477 -0.0596,-0.0399 -0.14253,-0.0557 -0.2118,-0.076 -0.1545,-0.0453 -0.31082,-0.0826 -0.46993,-0.10798 -0.15865,-0.0253 -0.31145,-0.037 -0.46415,-0.0378 z m -19.90771,2.36598 c 0.008,0.002 0.0174,0.005 0.0263,0.009 0.18586,0.0721 0.30189,0.24847 0.43386,0.38482 0.11061,0.11421 0.20582,0.2425 0.28573,0.37936 0.0352,0.0602 0.0896,0.13473 0.11013,0.20048 0.0197,0.0632 -0.002,0.13558 0.028,0.19665 -0.0352,-0.072 -0.073,-0.10232 -0.13349,-0.14857 0.0115,0.15603 -0.0586,0.33515 -0.10282,0.48365 -0.0383,0.12842 -0.10572,0.28653 -0.24465,0.33356 0.1543,-0.1257 0.22298,-0.30687 0.24645,-0.49824 0.0181,-0.1474 0.0247,-0.31918 -0.0154,-0.46183 0.0534,0.0273 0.11231,0.0314 0.15378,0.0812 -0.0657,-0.19398 -0.20379,-0.34009 -0.34003,-0.49164 -0.0756,-0.0841 -0.14063,-0.17551 -0.21937,-0.25529 -0.0621,-0.063 -0.15218,-0.17061 -0.22848,-0.21278 z m -7.25636,1.45643 -0.0501,0.0364 -0.045,0.0395 -0.0448,0.0407 -0.0413,0.0426 -0.0413,0.0428 -0.038,0.0448 -0.0362,0.0458 -0.0327,0.048 -0.004,0.0163 -0.004,0.0174 -0.004,0.007 -0.002,0.009 -0.004,0.007 -0.002,0.009 -0.0217,0.0456 -0.005,0.0222 -0.002,0.0231 -0.002,0.022 0.004,0.0237 0.004,0.0224 0.0108,0.023 0.0276,0.0165 0.0289,0.014 0.0301,0.0103 0.0327,0.006 0.0308,0.002 0.0333,-0.002 0.033,-0.006 0.0358,-0.008 0.002,0.0166 0.003,0.008 0.004,0.0104 0.0194,0.0148 0.0404,0.0297 -0.0324,0.0382 -0.1195,0.12649 -0.0616,0.0617 -0.0597,0.0625 -0.007,0.026 0.003,0.0273 0.0137,0.0336 0.0211,0.016 0.007,0.008 0.006,0.009 -0.10397,0.0552 -0.0969,0.0604 -0.0918,0.0634 -0.0441,0.0334 -0.0407,0.0354 -0.36891,0.0494 -0.36608,0.0466 -0.0807,0.008 -0.0792,0.007 c -0.14445,0.008 -0.29118,-8.6e-4 -0.43027,-0.0283 -0.11374,-0.0225 -0.0972,-0.0276 -0.11796,-0.10532 -0.0391,-0.14529 0.10514,-0.16586 0.27084,-0.21847 0.34704,-0.11017 0.6844,-0.30471 0.91495,-0.53339 0.10297,-0.10218 0.14008,-0.2204 0.26213,-0.31808 0.0933,-0.0747 0.27522,-0.21881 0.40458,-0.25109 0.0427,-0.0108 0.12467,0.0124 0.18727,0.005 0.0195,-0.002 0.037,-0.008 0.0513,-0.0179 z m 7.37163,0.54607 c 0.0212,0.0375 0.18636,0.0289 0.2363,0.0707 0.18751,0.17033 0.29902,0.49394 0.44171,0.71025 0.1286,0.19495 0.21929,0.41383 0.36466,0.59987 0.12796,0.1641 0.27603,0.31868 0.44914,0.42896 0.13938,0.0888 0.47984,0.11037 0.44786,0.3148 -0.0716,0.45719 -0.74741,0.12908 -0.98737,0.0459 -0.21155,-0.0735 -0.41695,-0.16388 -0.61766,-0.27138 -0.18382,-0.0984 -0.3564,-0.22838 -0.52307,-0.35272 -0.18422,-0.13732 -0.0172,-0.24951 -0.15057,-0.42288 0.12158,-0.0699 0.0946,-0.28077 0.0425,-0.38659 0.0483,0.0984 0.31754,-0.23371 0.33297,-0.27114 0.0631,-0.15278 0.0442,-0.32252 -0.0365,-0.46576 z m -6.19212,1.54282 c -0.0509,0.10296 -0.13905,0.16707 -0.19781,0.26555 -0.0667,0.1118 -0.10166,0.244 -0.10153,0.3734 1.3e-4,0.12544 0.003,0.22572 0.0701,0.33088 0.0651,0.10291 0.19994,0.18003 0.31436,0.22128 0.0636,0.0229 0.20858,-0.004 0.20858,0.0938 l -0.005,0.0194 -0.003,0.003 c -0.002,0.002 -0.002,0.005 -0.002,0.005 l -0.003,0.01 -0.0115,0.0195 -0.008,0.008 -0.003,0.0113 -0.0558,0.0227 0.0493,0.003 0.023,-0.002 c 0.002,-0.002 0.005,-0.002 0.005,-0.002 l 0.006,0 0.0131,0 0.0231,-0.005 0.023,-0.007 0.0459,-0.0195 0.0247,0.006 0.0114,0.003 0.0131,0.005 -0.0131,0.01 -0.007,0.005 c -0.0276,0.0361 -0.0692,0.0336 -0.10796,0.0453 -0.0292,0.009 -0.22048,0.024 -0.22488,0.0292 0.047,-0.0555 0.17473,-0.16307 0.11295,-0.23473 -0.16976,-0.0344 -0.36931,-0.0781 -0.49175,-0.20947 -0.15359,-0.16487 -0.0917,-0.41098 -0.0172,-0.59911 0.0532,-0.1348 0.17319,-0.34412 0.30871,-0.41324 z m 4.94497,0.0323 c 0.007,0.0689 0.0699,0.13725 0.0904,0.20617 0.0287,0.0967 0.05,0.20445 0.0549,0.30514 0.008,0.16286 -0.0178,0.38916 -0.0925,0.53682 -0.0223,0.044 -0.18113,0.29857 -0.21859,0.28115 -0.0347,-0.0159 -0.0672,-0.0457 -0.0843,-0.0803 -0.0632,0.0483 -0.0531,0.12273 -0.0796,0.18308 -0.0456,-0.0575 -0.0757,-0.11351 -0.0863,-0.18626 0.009,0.0649 -0.13213,0.14063 -0.20615,0.16418 -10e-4,-9.9e-4 -0.003,-0.003 -0.004,-0.005 0.001,9.9e-4 0.002,0.003 0.003,0.005 -0.0117,0.004 -0.0221,0.006 -0.0294,0.007 0.11331,-0.0815 0.20645,-0.28911 0.22617,-0.40967 0.0268,0.10646 0.0759,0.21769 0.0791,0.32987 0.0142,-0.0861 0.0716,-0.1442 0.12335,-0.20592 -0.004,0.0502 0.0336,0.0947 0.07,0.12435 0.003,0.002 0.16541,-0.27666 0.18086,-0.31454 0.058,-0.14187 0.0569,-0.31524 0.0578,-0.46602 8.5e-4,-0.16577 -0.0699,-0.31813 -0.0851,-0.47527 z m 1.88972,0.54317 c 0.0127,0.0335 0.033,0.0642 0.0559,0.0943 0.14262,0.18527 0.17894,0.50731 0.0693,0.71849 10e-4,-0.0602 0.005,-0.12292 -0.0145,-0.17762 0.0989,-0.15265 -0.0548,-0.48696 -0.11077,-0.63513 z m 0.0587,0.79106 c 2.6e-4,0.003 5.2e-4,0.009 6.5e-4,0.0172 0.002,0.11738 -0.008,0.71218 -0.0313,0.71179 -0.0627,-10e-4 -0.11104,-0.0539 -0.1711,-0.0538 0.0485,0.0721 0.0888,0.25094 0.0905,0.33583 0.002,0.0865 -0.0698,0.23694 -0.16148,0.13183 -0.0627,-0.072 -0.0823,-0.18434 -0.12283,-0.26568 -0.0537,0.2106 -0.22793,0.56976 -0.47904,0.62589 0.14603,-0.1159 0.28929,-0.27418 0.38636,-0.43163 0.0613,-0.0994 0.11481,-0.21842 0.10179,-0.33763 0.0611,0.0933 0.076,0.3007 0.21103,0.31948 0.0247,0.003 -0.0482,-0.21603 -0.0512,-0.22864 -0.0215,-0.0893 -0.0212,-0.18278 -0.0444,-0.27164 0.0531,0.0457 0.12405,0.0708 0.18163,0.10949 -0.054,-0.0362 -0.01,-0.25036 -0.004,-0.30247 0.0145,-0.12329 0.0414,-0.24627 0.0931,-0.35995 z m -2.57082,0.0764 c 0.0409,0.0513 0.0543,0.12729 0.0449,0.19247 0.009,-0.0651 -0.004,-0.14125 -0.0449,-0.19247 z m -2.90184,0.11748 c 0.0593,0.089 0.23466,-0.0186 0.33873,0.0779 -0.12491,0.21162 0.13192,0.3265 0.30293,0.34282 0.0943,0.009 0.18804,0.007 0.27265,-0.0204 0.0975,-0.0319 0.0684,-0.0744 0.18882,-0.0416 0.003,0.11997 0.18993,0.17721 0.28855,0.1487 0.0662,-0.0192 0.0786,-0.07 0.12567,-0.0938 0.0568,-0.0285 0.12442,0.0166 0.16442,-0.069 0.0533,0.068 0.10143,0.16993 0.21462,0.17052 0.16952,5.8e-4 0.24468,-0.17103 0.30063,-0.30044 0.004,0.004 0.008,0.01 0.0119,0.0145 0.0237,-0.0435 0.0445,-0.0885 0.0624,-0.13005 -0.0178,0.0416 -0.0386,0.0867 -0.0624,0.13018 0.0518,0.0649 0.0601,0.16093 0.15121,0.19513 0.0984,0.037 0.20077,-0.0247 0.20499,-0.13006 0.0107,0.0192 0.0313,0.0349 0.0409,0.0506 0.0107,-0.0281 0.0366,-0.0466 0.0303,-0.0942 0.17759,0.18714 0.26122,-0.11866 0.15224,-0.24424 0.064,0.0737 0.13025,0.15621 0.18856,0.24526 0.0897,0.13665 0.16063,0.28834 0.17509,0.44558 0.0242,0.2654 -0.0607,0.55204 -0.19383,0.78157 -0.0482,0.0832 -0.10872,0.16117 -0.16417,0.24131 -0.0603,0.0872 -0.066,0.11367 -0.0791,0.21696 -0.0214,0.16844 -0.14989,0.37751 -0.35081,0.31021 -0.0482,0.0948 -0.0654,0.20589 -0.0958,0.30704 -0.0318,0.10614 -0.0866,0.2063 -0.12951,0.30806 -0.0789,0.18684 -0.16725,0.35579 -0.25942,0.53288 -0.0869,0.16729 -0.23592,0.32891 -0.40601,0.41513 -0.10936,0.0555 -0.19102,0.0774 -0.31397,0.0839 -0.22347,0.007 -0.47971,-0.12547 -0.7364,-0.0942 -0.49152,-0.11405 -0.65402,-0.44175 -0.76542,-0.89764 -0.0385,-0.15755 -0.0208,-0.32471 -0.13939,-0.43912 -0.17555,-0.1693 -0.36402,-0.30637 -0.51165,-0.5018 -0.13548,-0.17928 -0.23866,-0.39987 -0.26006,-0.6165 -0.0227,-0.22933 0.007,-0.43334 0.10988,-0.63704 0.054,-0.1073 0.14543,-0.20375 0.17868,-0.32024 0.03,-0.10505 0.0103,-0.22592 0.008,-0.33419 0.0432,-0.002 0.0794,-0.0138 0.12052,-0.0401 0.12357,0.13258 0.18875,0.19731 0.39921,0.17929 0.15421,-0.0132 0.35277,-0.0467 0.4372,-0.19299 z m 0.26814,3.01231 c -0.0884,9.9e-4 0.0289,0.18461 0.0495,0.22278 0.0293,0.0535 0.0827,0.089 0.12066,0.13526 0.048,0.0585 0.0937,0.11812 0.15712,0.16139 0.0551,0.0377 0.11258,0.0667 0.17765,0.0832 0.0741,0.019 0.0354,0.12353 0.0164,0.17979 -0.0197,0.0584 0.0615,0.0549 0.0902,0.0244 0.0311,-0.0331 0.0291,-0.11888 0.023,-0.16202 0.22864,-0.0179 0.42612,-0.0934 0.60534,-0.23498 -0.0217,-0.0149 -0.0355,-0.0301 -0.0641,-0.0339 0.0582,-0.0332 0.11616,-0.0666 0.17393,-0.10049 0.0209,-0.0288 0.0727,-0.14766 0,-0.16202 -0.0196,-0.004 -0.0944,0.0676 -0.11154,0.0802 -0.057,0.0421 -0.12225,0.0735 -0.18613,0.10378 -0.26446,0.12537 -0.56858,0.0826 -0.81176,-0.0426 -0.0785,-0.0403 -0.10318,-0.0528 -0.15813,-0.13259 -0.0181,-0.0263 -0.0313,-0.11341 -0.0619,-0.1199 -0.008,-0.002 -0.0145,-0.002 -0.0205,-0.002 z m 18.58534,3.27747 0.11308,0.008 0.023,0.0228 -0.0113,0.0226 -0.01,0.013 -0.01,0.0131 -0.003,0.0226 -0.005,0.0242 -0.0328,0.0228 0.0196,-0.005 0.0212,-0.002 0.0427,0.002 0.0394,0.006 0.0394,0.0146 0.007,0.005 0.002,0.003 0.003,0.006 -0.002,0 0,0.002 0,0.003 0,0.006 -0.002,0 0,0.002 0,0.003 0,0.006 -0.01,0.0244 -0.01,0.0242 -0.003,0.0227 -0.002,0.01 -0.003,0.013 -0.0248,0.026 0.003,0.0226 0.003,0.0227 0.007,0.0244 0.0197,0.0485 0.005,0.005 0.0115,-0.003 0.0131,-0.003 0.005,-0.003 0.007,-0.002 0.0133,-0.003 0.003,-0.003 0,-0.002 0.002,0 0.003,0 0.01,-0.003 0.018,0.003 0.0197,0.005 0.007,0.0113 0.005,0.0146 0.003,0.0324 0.002,0.0357 0.003,0.005 0.005,0.006 0.007,0.013 0.0181,0.0227 0,0.0226 0,0.094 0.0229,0.0259 0.005,0.0227 0.003,0.068 0.0411,0.0697 0.0377,0.0712 0.008,0.0227 0.007,0.0227 0.005,0.0227 0.003,0.026 0.0427,0.0631 0.0409,0.0648 0.0377,0.0665 0.0377,0.0679 0.008,0.0179 0.0115,0.0195 0.0246,0.0357 0.028,0.0325 0.0312,0.0323 0.007,0.0227 0,0.0226 0.0147,0.0131 0.0147,0.0161 0.0181,0.0195 0.0163,0.0227 -0.0229,-0.005 -0.023,-0.008 -0.0231,-0.0129 -0.0216,-0.0163 -0.0227,-0.0242 -0.0197,-0.026 -0.0214,-0.0324 -0.0198,-0.0355 -0.0507,-0.0908 -0.0508,-0.0892 -0.0559,-0.0892 -0.0575,-0.0873 0,-0.0227 0,-0.0227 -0.0132,-0.0179 -0.01,-0.016 -0.0164,-0.0357 -0.0132,-0.0277 -0.0129,-0.0242 -0.0148,-0.0227 -0.0147,-0.0195 0.002,-0.0324 0,-0.0308 -0.005,-0.0307 -0.008,-0.0292 -0.0115,-0.0275 -0.005,-0.0275 -0.005,-0.0292 0.001,-0.0292 -0.008,-0.0226 -0.007,-0.0129 -0.003,-0.007 -0.002,-0.003 0,-0.002 -0.01,-0.0227 -0.005,-0.0113 -0.0114,0.002 -0.008,0.005 -0.0148,0.0146 -0.049,-0.01 -0.0198,-0.0147 -0.0147,-0.0129 -0.0131,-0.0163 -0.01,-0.0146 -0.01,-0.0176 -0.005,-0.0179 -0.003,-0.0194 0,-0.0195 0.001,-0.06 0.0116,-0.0582 0.0114,-0.0129 0.01,-0.0131 0.0132,-0.0209 0.0131,-0.0213 0.002,-0.008 -0.0361,0.002 -0.0197,0.002 -0.0182,0.005 -0.003,0.0114 -0.0197,0.0114 -0.087,-0.008 -0.0182,-0.0129 -0.0111,-0.0128 -0.0115,-0.01 -0.007,-0.0114 0,-0.0242 -0.0541,0.005 -0.0491,0.002 -0.049,-0.002 -0.0462,-0.005 -0.0458,-0.01 -0.0411,-0.0113 -0.0409,-0.0162 -0.0377,-0.018 0.0967,-0.0405 0.0494,-0.0177 0.0509,-0.0114 0.1,-0.0179 0.0525,-0.005 0.0525,-0.002 z m 0.95321,1.51135 0.0459,0.006 0.0147,0.0292 0.0179,0.0307 0.0181,0.029 0.0214,0.0308 0.0147,0.0228 0.0376,0.003 0.0395,0.002 0.0393,-0.002 0.0427,-0.003 -0.0181,0.0453 -0.023,0.0453 -0.006,0.0129 -0.008,0.0129 0.0146,0.0293 0.0181,0.0306 0.0394,0.0585 0.0459,0.055 0.0558,0.0551 0.0262,0.0275 0.01,0.0145 0.01,0.0179 0.005,0.006 0.007,0.005 0.0214,0.01 0.0263,0.0114 0.002,0.0226 0.002,0.0227 0.002,0.0259 0.036,0.0471 0.0395,0.0468 0.0411,0.0453 0.0458,0.0456 0.0297,0.0258 -0.0738,0.0292 -0.0263,-0.0195 -0.0215,-0.0195 -0.0212,-0.0211 -0.0164,-0.0209 -0.0165,-0.0242 -0.0129,-0.0261 -0.0114,-0.0275 -0.008,-0.0275 -0.0147,-0.0226 0,-0.0259 0,-0.018 0,-0.0193 0,-0.005 -0.0639,-0.0212 -0.087,-0.11813 -0.0919,-0.11507 -0.0411,-0.0453 0.003,-0.0471 0.0117,-0.0486 -0.0229,-0.0162 -0.005,-0.003 -0.003,-0.002 -0.007,-0.003 -0.0162,-0.006 -0.0197,-0.01 -0.0215,-0.006 -0.023,-0.008 -0.0246,-0.007 -0.0215,-0.0242 -0.0196,-0.0196 -0.0229,-0.0177 -0.0215,-0.0129 -0.0246,-0.0146 -0.0247,-0.01 -0.0263,-0.008 -0.0264,-0.003 0.007,-0.002 0.008,0 0.0164,-0.002 0.0132,-0.005 0.013,-0.003 0.01,-0.006 0.01,-0.006 0.007,-0.01 0.003,-0.005 0.005,-0.003 0.007,-0.008 0.0115,-0.003 z"
       id="path4182"
       inkscape:connector-curvature="0"
       style="fill:#ffffff;fill-opacity:1;stroke:none;stroke-width:4;stroke-miterlimit:4;stroke-dasharray:none;stroke-opacity:1;opacity:0.75"
       sodipodi:nodetypes="ccccccccccccccccccccccccccccccccccccccccccccccccccccccccccccscccccccccccccccccccccccccccccccccsccccccccccccccccccccccccccsccccccccccccccccccccccccccccccsccccccccccccccccccccccccccccccccccccccccccccccccccccccccccccccccccccccccccccccccccccccccccccccccccccccccccccccccccccccccccccscccccccccccccccsccccccccccccccccccccccccccccccccccccccccccccccccccccccccccccccccccccccccccccccccccccccccccsccccccccccccccccccccccccccccccccccccccccccccccccccccccccccccccccccccccccccccccccccccccccccccccccccccccccccccccccccccccccccccccccccccccccccccccccccccccccccccccccccccccccccccccccccccccccccccccccccccccccccccccccccccccccccccccccccccccccccccccccccccccccccccccccccccccccccccccccccccccccccccccccccccccccccccccccccccccccccccccccccccccccccccccccccccccccccccccccccccccccccccccccccccccccccccccccccccccccccccccccccccccccccccccccccccccccccccccccccccccccccccccccccccccccccccccccccccccccccccccccccccccccccccccccccccccccccccccccccccccccccccccccccccccccccccccccccccccccccccccccccccccccc" /></g></svg>